<svg xmlns="http://www.w3.org/2000/svg" width="20.378" height="20.216" viewBox="0 0 20.378 20.216"><defs><style>.a{fill:#fff;}</style></defs><path class="a" d="M7.065,18.173a2.022,2.022,0,1,0,2.022,2.022,2.022,2.022,0,0,0-2.022-2.022m10.108,0a2.022,2.022,0,1,0,2.022,2.022,2.022,2.022,0,0,0-2.022-2.022M7.237,14.888l.03-.121.91-1.648h7.531a2.012,2.012,0,0,0,1.769-1.041l3.9-7.086-1.759-.97h-.01L18.5,6.043,15.707,11.1h-7.1l-.131-.273L6.216,6.043l-.96-2.022L4.305,2H1V4.022H3.022l3.639,7.672L5.3,14.17a1.954,1.954,0,0,0-.253.97,2.022,2.022,0,0,0,2.022,2.022h12.13V15.14H7.489A.257.257,0,0,1,7.237,14.888Z" transform="translate(-1 -2)"/></svg>