<?xml version="1.0" ?>
<svg height="12.889" viewBox="0 0 14.346 12.889" width="14.346" xmlns="http://www.w3.org/2000/svg">
  <path d="M13.978,1.963a0.889,0.889 0,0 0,-0.659 -0.276h-3.5L9.819,0.529a0.422,0.422 0,0 0,-0.422 -0.429L4.953,0.1a0.429,0.429 0,0 0,-0.429 0.429L4.524,1.688L1.028,1.688a0.89,0.89 0,0 0,-0.66 0.276A0.908,0.908 0,0 0,0.1 2.615v9.247a0.916,0.916 0,0 0,0.268 0.659,0.892 0.892,0 0,0 0.66,0.268h12.29a0.891,0.891 0,0 0,0.659 -0.268,0.917 0.917,0 0,0 0.268,-0.659L14.245,2.615A0.907,0.907 0,0 0,13.978 1.963ZM5.378,0.951h3.6L8.978,1.688h-3.6ZM3.113,11.938L1.028,11.938a0.1,0.1 0,0 1,-0.084 -0.077L0.944,2.615c0,-0.054 0.031,-0.077 0.084,-0.077L3.113,2.538ZM10.382,11.938L3.98,11.938v-9.4h6.4ZM13.395,11.861c0,0.054 -0.023,0.077 -0.077,0.077L11.233,11.938v-9.4h2.086c0.054,0 0.077,0.023 0.077,0.077Z" fill="#bab8b8" stroke="#bab8b8" stroke-width="0.2"/>
</svg>
