<?xml version="1.0" ?>
<svg height="10.166" viewBox="0 0 7.148 10.166" width="7.148" xmlns="http://www.w3.org/2000/svg">
  <path d="M3.574,0a3.575,3.575 0,0 0,-3.04 5.453l2.837,4.572a0.3,0.3 0,0 0,0.253 0.141h0a0.3,0.3 0,0 0,0.253 -0.145L6.644,5.4A3.575,3.575 0,0 0,3.574 0ZM6.133,5.1L3.619,9.3 1.04,5.139a2.98,2.98 0,1 1,5.093 -0.04Z" fill="#ffffff"/>
  <path d="M3.574,1.787a1.787,1.787 0,1 0,1.787 1.787A1.789,1.789 0,0 0,3.574 1.787ZM3.574,4.769a1.2,1.2 0,1 1,1.193 -1.2A1.2,1.2 0,0 1,3.574 4.769Z" fill="#ffffff"/>
</svg>
