<?xml version="1.0" ?>
<svg height="9.442" viewBox="0 0 9.179 9.442" width="9.179" xmlns="http://www.w3.org/2000/svg">
  <path d="M4.85901,4.6L4.85901,0.36a0.26,0.26 0,0 0,-0.52 0L4.339,4.6a1.319,1.319 0,0 0,0 2.586v1.89a0.26,0.26 0,0 0,0.52 0L4.85901,7.191a1.319,1.319 0,0 0,0 -2.586ZM4.59901,6.692a0.8,0.8 0,1 1,0.8 -0.8A0.8,0.8 0,0 1,4.59901 6.7Z" fill="#ffffff" stroke="#ffffff" stroke-width="0.2"/>
  <path d="M1.67801,2.426L1.67801,0.36a0.26,0.26 0,1 0,-0.52 0L1.15801,2.426a1.319,1.319 0,0 0,0 2.586L1.15801,9.081a0.26,0.26 0,1 0,0.52 0L1.67801,5.011a1.318,1.318 0,0 0,0 -2.584ZM1.41801,4.518a0.8,0.8 0,1 1,0.8 -0.8A0.8,0.8 0,0 1,1.41801 4.518Z" fill="#ffffff" stroke="#ffffff" stroke-width="0.2"/>
  <path d="M8.02002,2.426L8.02002,0.36a0.26,0.26 0,0 0,-0.52 0L7.50003,2.426a1.319,1.319 0,0 0,0 2.586v4.07a0.26,0.26 0,0 0,0.52 0L8.02002,5.011a1.318,1.318 0,0 0,0 -2.584ZM7.76001,4.518a0.8,0.8 0,1 1,0.8 -0.8A0.8,0.8 0,0 1,7.76001 4.518Z" fill="#ffffff" stroke="#ffffff" stroke-width="0.2"/>
</svg>
