<?xml version="1.0" ?>
<svg height="16.056" viewBox="0 0 17.5 16.056" width="17.5" xmlns="http://www.w3.org/2000/svg">
  <path d="M8.838,13.606l-0.088,0.088 -0.1,-0.088c-4.156,-3.771 -6.9,-6.265 -6.9,-8.794A2.99,2.99 0,0 1,4.813 1.75,3.435 3.435,0 0,1 7.936,3.815h1.628A3.435,3.435 0,0 1,12.688 1.75,2.99 2.99,0 0,1 15.75,4.813c0,2.529 -2.747,5.023 -6.912,8.794M12.688,0A5.262,5.262 0,0 0,8.75 1.82,5.262 5.262,0 0,0 4.813,0 4.76,4.76 0,0 0,0 4.813c0,3.3 2.975,6 7.481,10.089l1.269,1.155L10.019,14.9c4.506,-4.086 7.481,-6.79 7.481,-10.089A4.76,4.76 0,0 0,12.688 0Z" fill="#eb0e0e"/>
  <path d="M9.067,2.708s-4.322,-1.771 -4.527,-1.73 -3.253,2.525 -3.253,2.525l1.226,4.135 6.194,6.5 7,-7.56v-3.413l-2.11,-1.506h-3.25l-1.281,1.848Z" fill="#eb0e0e" stroke="#eb0e0e" stroke-width="1"/>
</svg>
