<?xml version="1.0" ?>
<svg height="13.002" viewBox="0 0 15.602 13.002" width="15.602" xmlns="http://www.w3.org/2000/svg">
  <path d="M2.6,2.6L3.9,2.6v7.8L2.6,10.4L2.6,2.6m1.95,0L5.2,2.6v7.8h-0.65L4.55,2.6m1.3,0L7.8,2.6v7.8L5.851,10.4L5.851,2.6m2.6,0L9.1,2.6v7.8h-0.65L8.45,2.6m1.95,0h1.3v7.8L10.4,10.4L10.4,2.6m1.95,0L13,2.6v7.8h-0.65L12.35,2.6M1.3,1.3L1.3,3.9L0,3.9L0,1.3A1.3,1.3 0,0 1,1.3 0L3.9,0L3.9,1.3L1.3,1.3M14.3,0a1.3,1.3 0,0 1,1.3 1.3L15.6,3.9L14.3,3.9L14.3,1.3L11.7,1.3L11.7,0h2.6m-13,9.1v2.6L3.9,11.7L3.9,13L1.3,13A1.3,1.3 0,0 1,0 11.7L0,9.1L1.3,9.1m13,2.6L14.3,9.1h1.3v2.6A1.3,1.3 0,0 1,14.3 13L11.7,13L11.7,11.7Z" fill="#c4c4c4"/>
</svg>
