<?xml version="1.0" ?>
<svg height="61.947" viewBox="0 0 92.793 61.947" width="92.793" xmlns="http://www.w3.org/2000/svg">
  <path d="M40.151,18.227c0.127,0 0.127,0 0.255,0.127 0.255,0.127 0.255,0.382 0.127,0.637L38.749,21.927c-0.127,0.255 -0.382,0.255 -0.637,0.127s-0.255,-0.382 -0.127,-0.637L39.766,18.482C39.766,18.227 40.023,18.227 40.151,18.227Z" fill="#606060"/>
  <path d="M47.799,0a0.468,0.468 0,0 1,0.382 0.127L50.603,2.8a0.569,0.569 0,0 1,0 0.637,0.569 0.569,0 0,1 -0.637,0L47.544,0.765a0.569,0.569 0,0 1,0 -0.637C47.544,0 47.671,0 47.799,0Z" fill="#606060"/>
  <path d="M52.897,35.18c0.255,0 0.382,0.127 0.51,0.382 0,0.255 -0.127,0.51 -0.382,0.51l-3.824,0.637c-0.255,0 -0.51,-0.127 -0.51,-0.382s0.127,-0.51 0.382,-0.51l3.824,-0.637Z" fill="#606060"/>
  <path d="M49.328,27.405L49.46,27.405a0.466,0.466 0,0 1,0.255 0.637L48.56,31.611a0.485,0.485 0,0 1,-0.892 -0.382l1.147,-3.569A0.662,0.662 0,0 1,49.328 27.405Z" fill="#606060"/>
  <path d="M66.535,16.315h0.637l-0.127,2.549c-12.491,-0.382 -17.207,10.962 -17.207,10.962L47.416,28.934C47.671,28.679 52.769,16.315 66.535,16.315Z" fill="#f5b400"/>
  <path d="M50.348,1.53c2.167,2.039 8.54,7.648 11.727,8.413a39.362,39.362 0,0 1,7.9 2.677l-1.02,2.294a53.4,53.4 0,0 0,-7.393 -2.549c-4.461,-1.02 -12.109,-8.158 -12.874,-9.05Z" fill="#4dbfd9"/>
  <path d="M50.603,11.727a13.108,13.108 0,0 1,2.167 0.127c8.795,1.275 18.737,1.657 18.865,1.657l-0.127,2.549A186.937,186.937 0,0 1,52.384 14.276c-8.03,-1.147 -12.236,5.863 -12.236,5.991L37.984,18.992C38.239,18.865 42.445,11.727 50.603,11.727Z" fill="#dc4437"/>
  <path d="M68.195,17.717a23.352,23.352 0,0 1,2.677 0.255l-0.51,2.549c-4.079,-0.765 -5.353,-0.255 -8.158,7.393 -2.932,8.03 -9.942,9.177 -10.2,9.177l-0.382,-2.549L51.75,35.817 51.495,34.542a11.016,11.016 0,0 0,8.158 -7.52C62.074,20.904 63.731,17.717 68.195,17.717Z" fill="#109d59"/>
  <path d="M75.076,10.452h-7.9L67.176,21.159h7.9a7.073,7.073 0,0 1,7.01 7.01v16.06a7.073,7.073 0,0 1,-7.01 7.01L0,51.239L0,61.947L75.076,61.947A17.761,17.761 0,0 0,92.793 44.23L92.793,28.042A17.818,17.818 0,0 0,75.076 10.452Z" fill="#acbac8"/>
  <path d="M79.792,55.957a1.473,1.473 0,0 1,-1.53 1.53L6.374,57.487a1.473,1.473 0,0 1,-1.53 -1.53h0A1.473,1.473 0,0 1,6.374 54.424L78.263,54.424a1.469,1.469 0,0 1,1.53 1.53Z" fill="#c5d3e1"/>
  <path d="M79.791,15.424a1.55,1.55 0,0 1,-1.53 1.53L70.997,16.954a1.55,1.55 0,0 1,-1.53 -1.53h0a1.55,1.55 0,0 1,1.53 -1.53h7.265a1.469,1.469 0,0 1,1.53 1.53Z" fill="#c5d3e1"/>
</svg>
