<svg xmlns="http://www.w3.org/2000/svg" height="13px"  viewBox="0 0 59.11 12.76" width="59px" >
    <path fill="#fff" d="M4.026,0.528L6.308,0.528v7.921a8.106,8.106 0,0 1,-0.3 2.654,2.516 2.516,0 0,1 -0.99,1.213 2.968,2.968 0,0 1,-1.658 0.452A4.177,4.177 0,0 1,0 11.038l1.639,-1.534a3.882,3.882 0,0 0,0.925 0.828,1.522 1.522,0 0,0 0.739,0.211 0.592,0.592 0,0 0,0.544 -0.312,3.22 3.22,0 0,0 0.178,-1.353Z"/>
    <path fill="#fff" d="M9.654,0.002a1.353,1.353 0,0 1,1 0.423,1.4 1.4,0 0,1 0.417,1.023 1.387,1.387 0,0 1,-0.413 1.015,1.342 1.342,0 0,1 -0.988,0.414 1.359,1.359 0,0 1,-1.008 -0.423,1.427 1.427,0 0,1 -0.417,-1.04 1.359,1.359 0,0 1,0.413 -1,1.353 1.353,0 0,1 1,-0.414ZM8.546,3.636h2.215v8.831L8.546,12.467Z"/>
    <path fill="#fff" d="M16.923,3.41a4.682,4.682 0,0 1,2.35 0.625,4.512 4.512,0 0,1 1.716,1.7 4.557,4.557 0,0 1,0.616 2.313,4.64 4.64,0 0,1 -0.621,2.337 4.481,4.481 0,0 1,-1.691 1.7,4.677 4.677,0 0,1 -2.362,0.613 4.4,4.4 0,0 1,-3.242 -1.353,4.649 4.649,0 0,1 3.233,-7.932ZM16.959,5.497a2.283,2.283 0,0 0,-1.72 0.719,2.546 2.546,0 0,0 -0.687,1.836 2.6,2.6 0,0 0,0.676 1.867,2.269 2.269,0 0,0 1.719,0.714 2.3,2.3 0,0 0,1.738 -0.723,2.853 2.853,0 0,0 0.015,-3.707A2.326,2.326 0,0 0,16.959 5.497Z"/>
    <path fill="#fff" d="M25.466,0.528h2.214l2.767,8.327L33.24,0.528h2.213l2,11.939h-2.2l-1.277,-7.54 -2.537,7.54h-2l-2.515,-7.54 -1.311,7.54L23.4,12.467Z"/>
    <path fill="#fff" d="M45.541,3.636h2.215v8.831h-2.215v-0.93a4.356,4.356 0,0 1,-1.3 0.889,3.651 3.651,0 0,1 -1.415,0.272 3.929,3.929 0,0 1,-2.959 -1.327,4.648 4.648,0 0,1 -1.251,-3.3 4.745,4.745 0,0 1,1.207 -3.352,3.845 3.845,0 0,1 2.936,-1.306 3.728,3.728 0,0 1,1.492 0.3,4.068 4.068,0 0,1 1.289,0.9ZM43.214,5.454a2.241,2.241 0,0 0,-1.707 0.726,2.621 2.621,0 0,0 -0.676,1.86 2.668,2.668 0,0 0,0.691 1.882,2.241 2.241,0 0,0 1.7,0.739 2.283,2.283 0,0 0,1.732 -0.726,2.657 2.657,0 0,0 0.687,-1.9 2.578,2.578 0,0 0,-0.687 -1.867A2.307,2.307 0,0 0,43.214 5.454Z"/>
    <path fill="#fff" d="M49.477,3.635h1.9v1.112a2.368,2.368 0,0 1,0.82 -1,1.974 1.974,0 0,1 1.119,-0.338 2.075,2.075 0,0 1,0.9 0.224l-0.69,1.908a1.517,1.517 0,0 0,-0.641 -0.194,1.019 1.019,0 0,0 -0.865,0.632 5.789,5.789 0,0 0,-0.353 2.484l0.008,0.43L51.675,12.462h-2.2Z"/>
    <path fill="#fff" d="M55.58,0.381h2.216L57.796,3.635h1.315L59.111,5.543h-1.315L57.796,12.471h-2.216L55.58,5.543L54.444,5.543L54.444,3.635h1.136Z"/>
</svg>
