<svg xmlns="http://www.w3.org/2000/svg" xmlns:xlink="http://www.w3.org/1999/xlink" width="21.6" height="18" viewBox="0 0 21.6 18"><defs><style>.a{fill:none;}.b{clip-path:url(#a);}.c{fill:#999;}</style><clipPath id="a"><rect class="a" width="21.6" height="18"/></clipPath></defs><g class="b"><path class="c" d="M3.6,5.6H5.4V16.4H3.6V5.6m2.7,0h.9V16.4H6.3V5.6m1.8,0h2.7V16.4H8.1V5.6m3.6,0h.9V16.4h-.9V5.6m2.7,0h1.8V16.4H14.4V5.6m2.7,0H18V16.4h-.9V5.6M1.8,3.8V7.4H0V3.8A1.8,1.8,0,0,1,1.8,2H5.4V3.8H1.8M19.8,2a1.8,1.8,0,0,1,1.8,1.8V7.4H19.8V3.8H16.2V2h3.6M1.8,14.6v3.6H5.4V20H1.8A1.8,1.8,0,0,1,0,18.2V14.6H1.8m18,3.6V14.6h1.8v3.6A1.8,1.8,0,0,1,19.8,20H16.2V18.2Z" transform="translate(0 -2)"/></g></svg>