<svg xmlns="http://www.w3.org/2000/svg" width="42.76" height="44.842" viewBox="0 0 42.76 44.842">
  <path id="sale" d="M35.788,4.974,37,12.629l6.961,3.55-3.51,6.941,3.53,6.941-7.021,3.55-1.21,7.655-7.715-1.21L22.54,45.532l-5.513-5.553L9.371,41.248l-1.23-7.715L1.22,30l3.53-6.941L1.24,16.179,8.2,12.59l1.21-7.6,7.675,1.269L22.6.69l5.494,5.494,7.7-1.21M17.641,13.2a2.975,2.975,0,1,0,2.975,2.975A2.975,2.975,0,0,0,17.641,13.2m9.916,13.883a2.975,2.975,0,1,0,2.975,2.975,2.975,2.975,0,0,0-2.975-2.975M15.48,33.037,32.516,16l-2.8-2.8L12.683,30.241Z" transform="translate(-1.22 -0.69)" fill="#079a18"/>
</svg>
