<svg xmlns="http://www.w3.org/2000/svg" width="9.874" height="9.873" viewBox="0 0 9.874 9.873"><defs><style>.a{fill:#0066c0;}</style></defs><path class="a" d="M4.937,0A4.937,4.937,0,1,0,9.874,4.937,4.942,4.942,0,0,0,4.937,0Zm0,8.976A4.039,4.039,0,1,1,8.976,4.937,4.044,4.044,0,0,1,4.937,8.976Z"/><path class="a" d="M10.213,4a.5.5,0,1,0,.5.5.5.5,0,0,0-.5-.5m-.12,1.587a5.528,5.528,0,0,0-1.477.9c-.067.05-.047.047.007.14s.047.1.11.053.176-.113.359-.226C9.8,6,9.2,7.041,8.9,8.8c-.12.872.665.423.868.289s.735-.5.789-.536c.073-.05.02-.09-.037-.173-.04-.057-.08-.017-.08-.017-.216.143-.612.443-.665.253a16.427,16.427,0,0,1,.566-2.386C10.379,6.02,10.479,5.554,10.093,5.587Z" transform="translate(-4.513 -1.869)"/></svg>