<svg xmlns="http://www.w3.org/2000/svg" width="204.472" height="143.1" viewBox="0 0 204.472 143.1"><defs><style>.a{fill:#4c4335;}.b{fill:#9eaf3a;}.c{fill:#bcc943;}.d{fill:#7b8426;}.e{fill:#f9e4c7;}.f{fill:#fff2e1;}.g{fill:#d8c571;}.h{fill:#e2e2e2;}.i{fill:#424242;opacity:0.2;}.j{fill:#ff4e00;}.k{fill:#d64e12;}.l{fill:#e01e1e;}</style></defs><g transform="translate(759 -20987.996)"><g transform="translate(20 57)"><g transform="translate(-1332.5 20457.492)"><g transform="translate(740.109 552.508)"><rect class="a" width="0.379" height="54.955" transform="translate(7.006 4.658)"/><path class="b" d="M873.344,585.873c-1.831-.342-6.7-4.914-6.952-6.5s5.427-8.483,6.868-8.324,6.612,6.1,6.7,7.61S875.462,586.27,873.344,585.873Z" transform="translate(-866.383 -571.047)"/><path class="c" d="M867.33,581.012a19.72,19.72,0,0,1,10.458-5.869c-1.622-1.981-3.7-4-4.529-4.093-1.441-.159-7.121,6.738-6.868,8.324a4.359,4.359,0,0,0,.939,1.638Z" transform="translate(-866.383 -571.047)"/><path class="d" d="M878.286,587.225a17.9,17.9,0,0,1-7.226,1.563c1.5,1.424,3.234,2.707,4.171,2.882,1.8.338,5.377-4.02,6.358-6.261a19.746,19.746,0,0,1-3.3,1.816Z" transform="translate(-868.271 -576.844)"/><path class="e" d="M874.155,585.871c-1.554-.29-5.68-4.168-5.9-5.512s4.6-7.194,5.823-7.059,5.609,5.176,5.681,6.453S875.952,586.207,874.155,585.871Z" transform="translate(-867.137 -571.956)"/><path class="f" d="M874.083,573.3c-1.222-.135-6.039,5.714-5.823,7.059a4.17,4.17,0,0,0,.948,1.578,8.957,8.957,0,0,0,10.545-2.021.862.862,0,0,0,.011-.162C879.691,578.476,875.3,573.435,874.083,573.3Z" transform="translate(-867.137 -571.956)"/></g><rect class="g" width="204.472" height="4.737" transform="translate(553.5 611.866)"/></g><g transform="translate(-851.553 20662.496)"><g transform="translate(123.381 297.086)"><path class="h" d="M262.772,350.119a3.591,3.591,0,0,1,3.592,3.591h-7.183a3.591,3.591,0,0,1,3.591-3.591Z" transform="translate(-259.181 -347.133)"/><path class="h" d="M284.329,342.4a6.577,6.577,0,0,1,6.577,6.577H277.752a6.577,6.577,0,0,1,6.577-6.577Z" transform="translate(-270.569 -342.4)"/></g><g transform="translate(208.347 330.191)"><path class="h" d="M482.447,435.71a3.591,3.591,0,0,1,3.592,3.591h-7.183a3.591,3.591,0,0,1,3.591-3.591Z" transform="translate(-478.856 -432.724)"/><path class="h" d="M504,427.991a6.577,6.577,0,0,1,6.577,6.577h-13.15A6.577,6.577,0,0,1,504,427.991Z" transform="translate(-490.244 -427.991)"/></g><g transform="translate(243.443 319.803)"><path class="h" d="M573.186,408.853a3.592,3.592,0,0,1,3.592,3.591h-7.183a3.591,3.591,0,0,1,3.591-3.591Z" transform="translate(-569.595 -405.867)"/><path class="h" d="M594.743,401.134a6.577,6.577,0,0,1,6.577,6.577H588.166A6.577,6.577,0,0,1,594.743,401.134Z" transform="translate(-580.983 -401.134)"/></g><g transform="translate(85.553 330.859)"><ellipse class="i" cx="11.721" cy="3.089" rx="11.721" ry="3.089" transform="translate(6.798 43.269)"/><path class="j" d="M179.9,429.718a18.518,18.518,0,0,0-18.518,18.518c0,10.227,18.518,27.84,18.518,27.84s18.518-17.613,18.518-27.84A18.518,18.518,0,0,0,179.9,429.718Zm0,28.909a10.39,10.39,0,1,1,10.39-10.39,10.39,10.39,0,0,1-10.39,10.39Z" transform="translate(-161.379 -429.718)"/><path class="k" d="M189.582,445.512a12.409,12.409,0,1,0,12.409,12.409,12.409,12.409,0,0,0-12.409-12.409Zm0,20.775a8.365,8.365,0,1,1,8.365-8.365A8.365,8.365,0,0,1,189.582,466.287Z" transform="translate(-171.064 -439.403)"/></g><g transform="translate(224.085 366.518)"><path class="i" d="M548.89,604.165c0,1.221-3.754,2.21-8.386,2.21s-8.386-.989-8.386-2.21,3.754-2.21,8.386-2.21S548.89,602.944,548.89,604.165Z" transform="translate(-527.255 -570.997)"/><path class="j" d="M532.793,521.914a13.249,13.249,0,0,0-13.249,13.25c0,7.318,13.249,19.919,13.249,19.919s13.25-12.6,13.25-19.919A13.25,13.25,0,0,0,532.793,521.914Zm0,20.684a7.434,7.434,0,1,1,7.434-7.434,7.434,7.434,0,0,1-7.434,7.434Z" transform="translate(-519.544 -521.914)"/><path class="k" d="M539.723,533.215a8.879,8.879,0,1,0,8.879,8.879,8.879,8.879,0,0,0-8.879-8.879Zm0,14.864a5.985,5.985,0,1,1,5.985-5.985,5.985,5.985,0,0,1-5.985,5.985Z" transform="translate(-526.473 -528.844)"/></g><g transform="translate(137.356 268.504)"><ellipse class="i" cx="23.798" cy="6.273" rx="23.798" ry="6.273" transform="translate(13.803 87.859)"/><path class="j" d="M332.913,268.5a37.6,37.6,0,0,0-37.6,37.6c0,20.767,37.6,56.53,37.6,56.53s37.6-35.764,37.6-56.53a37.6,37.6,0,0,0-37.6-37.6Zm0,58.7a21.1,21.1,0,1,1,21.1-21.1A21.1,21.1,0,0,1,332.913,327.2Z" transform="translate(-295.312 -268.504)"/><path class="k" d="M352.579,300.574a25.2,25.2,0,1,0,25.2,25.2A25.2,25.2,0,0,0,352.579,300.574Zm0,42.183a16.986,16.986,0,1,1,16.985-16.986,16.986,16.986,0,0,1-16.985,16.986Z" transform="translate(-314.977 -288.17)"/></g><g transform="translate(167.396 299.415)"><path class="h" d="M482.365,360.188a9.158,9.158,0,0,0-9.157,9.157h18.315A9.158,9.158,0,0,0,482.365,360.188Z" transform="translate(-434.441 -355.637)"/><path class="h" d="M378.653,369.192a5.675,5.675,0,0,0-5.675,5.675h11.35a5.675,5.675,0,0,0-5.675-5.675Z" transform="translate(-372.978 -361.159)"/><path class="h" d="M416.032,348.422a13.709,13.709,0,0,0-13.709,13.709H429.74a13.708,13.708,0,0,0-13.709-13.709Z" transform="translate(-390.973 -348.422)"/></g><g transform="translate(86.662 307.283)"><path class="h" d="M206.093,377.356a4,4,0,0,0-4,4h7.994A4,4,0,0,0,206.093,377.356Z" transform="translate(-187.457 -374.034)"/><path class="h" d="M171.566,368.766a7.319,7.319,0,0,0-7.319,7.319h14.639A7.319,7.319,0,0,0,171.566,368.766Z" transform="translate(-164.247 -368.766)"/></g><g transform="translate(111.854 280.908)"><path class="h" d="M271.225,309.164a4,4,0,0,0-4,4h7.994A4,4,0,0,0,271.225,309.164Z" transform="translate(-252.589 -305.842)"/><path class="h" d="M236.7,300.574a7.32,7.32,0,0,0-7.32,7.319h14.639a7.319,7.319,0,0,0-7.319-7.319Z" transform="translate(-229.379 -300.574)"/></g><g transform="translate(205.098 268.504)"><path class="h" d="M512.3,277.1a4,4,0,0,0-4,4h8A4,4,0,0,0,512.3,277.1Z" transform="translate(-493.665 -273.772)"/><path class="h" d="M477.774,268.5a7.32,7.32,0,0,0-7.319,7.319h14.639a7.32,7.32,0,0,0-7.32-7.32Z" transform="translate(-470.455 -268.504)"/></g><g transform="translate(118.238 322.876)"><path class="h" d="M278.181,415.709a3.085,3.085,0,0,0-3.085,3.085h6.17a3.085,3.085,0,0,0-3.085-3.085Z" transform="translate(-263.798 -413.145)"/><path class="h" d="M251.534,409.079a5.649,5.649,0,0,0-5.649,5.649h11.3a5.649,5.649,0,0,0-5.651-5.649Z" transform="translate(-245.885 -409.079)"/></g><g transform="translate(234.011 295.376)"><path class="h" d="M587.055,346.57a4,4,0,0,0-4,4h7.994A4,4,0,0,0,587.055,346.57Z" transform="translate(-568.419 -343.248)"/><path class="h" d="M552.528,337.98a7.32,7.32,0,0,0-7.319,7.319h14.639A7.32,7.32,0,0,0,552.528,337.98Z" transform="translate(-545.209 -337.98)"/></g><path class="h" d="M259.636,385.8h-.53v-.53a.251.251,0,0,0-.251-.251h0a.251.251,0,0,0-.251.251v.53h-.53a.251.251,0,1,0,0,.5h.53v.53a.251.251,0,0,0,.251.251h0a.251.251,0,0,0,.251-.251v-.53h.53a.251.251,0,1,0,0-.5Z" transform="translate(-134.968 -71.452)"/><path class="h" d="M292.86,402.012h-.53v-.53a.251.251,0,0,0-.251-.251h0a.251.251,0,0,0-.251.251v.53h-.53a.251.251,0,0,0,0,.5h.53v.53a.251.251,0,0,0,.251.251h0a.251.251,0,0,0,.251-.251v-.53h.53a.251.251,0,0,0,0-.5Z" transform="translate(-155.341 -81.391)"/><path class="h" d="M372.124,343.181h-.53v-.53a.251.251,0,0,0-.251-.251h0a.251.251,0,0,0-.251.251v.53h-.53a.251.251,0,0,0,0,.5h.53v.53a.251.251,0,0,0,.251.251h0a.251.251,0,0,0,.251-.251v-.53h.53a.251.251,0,0,0,0-.5Z" transform="translate(-203.948 -45.314)"/><path class="h" d="M403.474,350.209h-.53v-.53a.251.251,0,0,0-.251-.251h0a.251.251,0,0,0-.251.251v.53h-.53a.251.251,0,1,0,0,.5h.53v.53a.251.251,0,0,0,.251.251h0a.251.251,0,0,0,.251-.251v-.53h.53a.251.251,0,1,0,0-.5Z" transform="translate(-223.172 -49.624)"/><path class="h" d="M504.291,340.514h-.53v-.53a.251.251,0,0,0-.251-.251h0a.251.251,0,0,0-.251.251v.53h-.53a.251.251,0,1,0,0,.5h.53v.53a.251.251,0,0,0,.251.251h0a.251.251,0,0,0,.251-.251v-.53h.53a.251.251,0,1,0,0-.5Z" transform="translate(-284.995 -43.679)"/><path class="h" d="M537.47,328.138h-.53v-.53a.251.251,0,0,0-.251-.251h0a.251.251,0,0,0-.251.251v.53h-.529a.251.251,0,1,0,0,.5h.529v.53a.251.251,0,0,0,.251.251h0a.251.251,0,0,0,.251-.251v-.53h.53a.251.251,0,1,0,0-.5Z" transform="translate(-305.341 -36.09)"/><path class="h" d="M482.008,301.355h-.53v-.53a.251.251,0,0,0-.251-.251h0a.251.251,0,0,0-.251.251v.53h-.53a.251.251,0,0,0,0,.5h.53v.53a.251.251,0,0,0,.251.251h0a.251.251,0,0,0,.251-.251v-.53h.53a.251.251,0,0,0,0-.5Z" transform="translate(-271.331 -19.666)"/><path class="h" d="M511.744,316.04h-.53v-.53a.251.251,0,0,0-.251-.251h0a.251.251,0,0,0-.251.251v.53h-.53a.251.251,0,1,0,0,.5h.53v.53a.251.251,0,0,0,.251.251h0a.251.251,0,0,0,.251-.251v-.53h.53a.251.251,0,1,0,0-.5Z" transform="translate(-289.565 -28.671)"/><path class="h" d="M578.026,313.373H577.5v-.53a.251.251,0,0,0-.251-.251h0a.251.251,0,0,0-.251.251v.53h-.53a.251.251,0,1,0,0,.5H577v.53a.251.251,0,0,0,.251.251h0a.251.251,0,0,0,.251-.251v-.53h.529a.251.251,0,1,0,0-.5Z" transform="translate(-330.211 -27.036)"/><path class="h" d="M498.916,407.751h-.53v-.53a.251.251,0,0,0-.251-.251h0a.251.251,0,0,0-.251.251v.53h-.53a.251.251,0,0,0,0,.5h.53v.53a.251.251,0,0,0,.251.251h0a.251.251,0,0,0,.251-.251v-.53h.53a.251.251,0,0,0,0-.5Z" transform="translate(-281.699 -84.91)"/><path class="h" d="M529.989,399.345h-.53v-.53a.251.251,0,0,0-.251-.251h0a.251.251,0,0,0-.251.251v.53h-.53a.251.251,0,1,0,0,.5h.53v.53a.251.251,0,0,0,.251.251h0a.251.251,0,0,0,.251-.251v-.53h.53a.251.251,0,1,0,0-.5Z" transform="translate(-300.753 -79.755)"/><path class="h" d="M460.962,454.082h-.53v-.53a.251.251,0,0,0-.251-.251h0a.251.251,0,0,0-.251.251v.53h-.53a.251.251,0,1,0,0,.5h.53v.53a.251.251,0,0,0,.251.251h0a.251.251,0,0,0,.251-.251v-.53h.53a.251.251,0,1,0,0-.5Z" transform="translate(-258.425 -113.321)"/><path class="h" d="M550.278,433.824h-.53v-.53a.251.251,0,0,0-.251-.251h0a.251.251,0,0,0-.251.251v.53h-.53a.251.251,0,0,0,0,.5h.53v.53a.251.251,0,0,0,.251.251h0a.251.251,0,0,0,.251-.251v-.53h.53a.251.251,0,0,0,0-.5Z" transform="translate(-313.195 -100.898)"/><path class="h" d="M560.612,381.979h-.53v-.53a.251.251,0,0,0-.251-.251h0a.251.251,0,0,0-.251.251v.53h-.53a.251.251,0,0,0,0,.5h.53v.53a.251.251,0,0,0,.251.251h0a.251.251,0,0,0,.251-.251v-.53h.53a.251.251,0,0,0,0-.5Z" transform="translate(-319.532 -69.106)"/><path class="h" d="M242.056,352.876h-.53v-.53a.251.251,0,0,0-.251-.251h0a.251.251,0,0,0-.251.251v.53h-.53a.251.251,0,1,0,0,.5h.53v.53a.251.251,0,0,0,.251.251h0a.251.251,0,0,0,.251-.251v-.53h.53a.251.251,0,1,0,0-.5Z" transform="translate(-124.187 -51.26)"/><path class="h" d="M290.193,296.021h-.53v-.53a.251.251,0,0,0-.251-.251h0a.251.251,0,0,0-.251.251v.53h-.53a.251.251,0,0,0,0,.5h.53v.53a.251.251,0,0,0,.251.251h0a.251.251,0,0,0,.251-.251v-.53h.53a.251.251,0,0,0,0-.5Z" transform="translate(-153.706 -16.395)"/><path class="h" d="M200.282,336.1h-.53v-.53a.251.251,0,0,0-.251-.251h0a.251.251,0,0,0-.251.251v.53h-.53a.251.251,0,1,0,0,.5h.53v.529a.251.251,0,0,0,.251.251h0a.251.251,0,0,0,.251-.251V336.6h.53a.251.251,0,1,0,0-.5Z" transform="translate(-98.571 -40.969)"/><path class="h" d="M223.659,399.248h-.53v-.53a.251.251,0,0,0-.251-.251h0a.251.251,0,0,0-.251.251v.53h-.53a.251.251,0,0,0,0,.5h.53v.53a.251.251,0,0,0,.251.251h0a.251.251,0,0,0,.251-.251v-.53h.53a.251.251,0,0,0,0-.5Z" transform="translate(-112.906 -79.696)"/><path class="h" d="M186.774,411.61h-.53v-.53a.251.251,0,0,0-.251-.251h0a.251.251,0,0,0-.251.251v.53h-.53a.251.251,0,1,0,0,.5h.53v.53a.251.251,0,0,0,.251.251h0a.251.251,0,0,0,.251-.251v-.53h.53a.251.251,0,1,0,0-.5Z" transform="translate(-90.287 -87.276)"/><path class="h" d="M281.647,443.626h-.53v-.53a.251.251,0,0,0-.251-.251h0a.251.251,0,0,0-.251.251v.53h-.529a.251.251,0,1,0,0,.5h.529v.53a.251.251,0,0,0,.251.251h0a.251.251,0,0,0,.251-.251v-.53h.53a.251.251,0,1,0,0-.5Z" transform="translate(-148.465 -106.909)"/></g></g><g transform="translate(-512.007 20890.422)"><path class="l" d="M-52.685,179.367l-.349,3.782a.68.68,0,0,1-.2.456.6.6,0,0,1-.428.162.6.6,0,0,1-.428-.162.679.679,0,0,1-.2-.456l-.355-3.782q-.025-.288-.025-.379a1.044,1.044,0,0,1,.288-.768.967.967,0,0,1,.716-.291.965.965,0,0,1,.713.294,1.01,1.01,0,0,1,.291.741A3.092,3.092,0,0,1-52.685,179.367Zm-.2,6.23a.6.6,0,0,1-.2.456.789.789,0,0,1-.557.187.789.789,0,0,1-.557-.187.6.6,0,0,1-.2-.456.6.6,0,0,1,.2-.45.786.786,0,0,1,.56-.187.8.8,0,0,1,.56.184.592.592,0,0,1,.192.456Z" transform="translate(0 2.149)"/></g></g></svg>