<svg xmlns="http://www.w3.org/2000/svg" width="44.5" height="44.501" viewBox="0 0 44.5 44.501">
  <g id="Group_25689" data-name="Group 25689" transform="translate(21999 10736)">
    <g id="discount_5_" data-name="discount (5)" transform="translate(-21999 -10736)">
      <path id="Path_3328" data-name="Path 3328" d="M42.465,22.252l1.952-5.092A1.392,1.392,0,0,0,44,15.58l-4.233-3.432-.857-5.387a1.39,1.39,0,0,0-1.157-1.154L32.362,4.75,28.932.514A1.393,1.393,0,0,0,27.355.092l-5.1,1.955L17.168.094a1.387,1.387,0,0,0-1.577.423L12.159,4.753l-5.387.857A1.393,1.393,0,0,0,5.618,6.764l-.857,5.387L.526,15.583A1.391,1.391,0,0,0,.1,17.16l1.952,5.092L.1,27.344a1.387,1.387,0,0,0,.423,1.577L4.761,32.35l.857,5.387a1.39,1.39,0,0,0,1.154,1.157l5.387.857,3.432,4.233a1.384,1.384,0,0,0,1.58.423l5.089-1.95,5.092,1.952a1.392,1.392,0,0,0,1.58-.426l3.429-4.233,5.387-.857a1.393,1.393,0,0,0,1.157-1.157l.857-5.387L44,28.921a1.388,1.388,0,0,0,.423-1.577Z" transform="translate(-0.01 0)" fill="#ff4e00"/>
    </g>
    <g id="Ellipse_119" data-name="Ellipse 119" transform="translate(-21994.1 -10731.095)" fill="none" stroke="#faa782" stroke-width="0.5">
      <circle cx="17.654" cy="17.654" r="17.654" stroke="none"/>
      <circle cx="17.654" cy="17.654" r="17.404" fill="none"/>
    </g>
  </g>
</svg>
