<?xml version="1.0" ?>
<svg height="13.6" viewBox="0 0 14.483 13.6" width="14.483" xmlns="http://www.w3.org/2000/svg">
  <path d="M11.965,6.667a0.4,0.4 0,0 0,-0.408 0.408v5.573L8.666,12.648v-2.276a0.4,0.4 0,0 0,-0.393 -0.4L6.182,9.972a0.412,0.412 0,0 0,-0.415 0.4v2.276L2.884,12.648v-5.388a0.4,0.4 0,0 0,-0.8 0v5.8a0.4,0.4 0,0 0,0.393 0.394L6.182,13.454a0.4,0.4 0,0 0,0.393 -0.394v-2.276h1.29v2.276a0.4,0.4 0,0 0,0.408 0.394h3.692a0.4,0.4 0,0 0,0.393 -0.394v-5.981A0.4,0.4 0,0 0,11.965 6.667Z" fill="#bab8b8" stroke="#bab8b8" stroke-width="0.3"/>
  <path d="M14.181,6.985 L10.964,3.75L10.964,1.55a0.407,0.407 0,0 0,-0.415 -0.406,0.4 0.4,0 0,0 -0.393,0.406L10.156,2.95l-2.654,-2.67a0.39,0.39 0,0 0,-0.274 -0.127,0.4 0.4,0 0,0 -0.289,0.127L0.274,6.941a0.382,0.382 0,0 0,0 0.563,0.382 0.382,0 0,0 0.563,0l6.39,-6.375 6.375,6.435a0.394,0.394 0,0 0,0.289 0.1,0.448 0.448,0 0,0 0.289,-0.1A0.421,0.421 0,0 0,14.181 6.985Z" fill="#bab8b8" stroke="#bab8b8" stroke-width="0.3"/>
</svg>
