<?xml version="1.0" ?>
<svg height="13.323" viewBox="0 0 9.457 13.323" width="9.457" xmlns="http://www.w3.org/2000/svg">
  <path d="M4.728,0.15a4.579,4.579 0,0 0,-3.9 6.986l3.634,5.857a0.382,0.382 0,0 0,0.324 0.18h0a0.381,0.381 0,0 0,0.324 -0.185l3.542,-5.914A4.579,4.579 0,0 0,4.728 0.15ZM8.006,6.682 L4.786,12.058 1.486,6.733a3.818,3.818 0,1 1,6.524 -0.052Z" fill="#bab8b8" stroke="#bab8b8" stroke-width="0.3"/>
  <path d="M4.728,2.439a2.289,2.289 0,1 0,2.289 2.289A2.292,2.292 0,0 0,4.728 2.439ZM4.728,6.259a1.531,1.531 0,1 1,1.529 -1.531A1.532,1.532 0,0 1,4.728 6.259Z" fill="#bab8b8" stroke="#bab8b8" stroke-width="0.3"/>
</svg>
