<?xml version="1.0" ?>
<svg height="27" viewBox="0 0 27 27" width="27" xmlns="http://www.w3.org/2000/svg">
  <path d="M13.5,13.5m-13.5,0a13.5,13.5 0,1 1,27 0a13.5,13.5 0,1 1,-27 0" fill="#079a18"/>
  <path d="M19.25,16.375a8.16,8.16 0,0 1,-2.7 -0.45h-0.225a0.681,0.681 0,0 0,-0.525 0.225L14.15,17.8A11.676,11.676 0,0 1,9.2 12.85L10.85,11.2a0.6,0.6 0,0 0,0.15 -0.75,10.664 10.664,0 0,1 -0.375,-2.7A0.807,0.807 0,0 0,9.875 7L7.25,7A0.807,0.807 0,0 0,6.5 7.75,12.739 12.739,0 0,0 19.25,20.5a0.807,0.807 0,0 0,0.75 -0.75L20,17.125a0.807,0.807 0,0 0,-0.75 -0.75M8,8.5L9.125,8.5A14.977,14.977 0,0 0,9.5 10.45l-0.9,0.9A12.044,12.044 0,0 1,8 8.5M18.5,19a12.044,12.044 0,0 1,-2.85 -0.6l0.9,-0.9a8.153,8.153 0,0 0,1.95 0.3Z" fill="#fff"/>
</svg>
