<?xml version="1.0" ?>
<svg height="21.842" viewBox="0 0 21.841 21.842" width="21.841" xmlns="http://www.w3.org/2000/svg">
  <path d="M3.629,19.407a0.426,0.426 0,1 0,0.125 0.3A0.43,0.43 0,0 0,3.629 19.407Z" fill="#004d9c"/>
  <path d="M20.029,7.804a0.425,0.425 0,1 0,0.125 0.3A0.429,0.429 0,0 0,20.029 7.804Z" fill="#004d9c"/>
  <path d="M21.716,0.125a0.427,0.427 0,0 0,-0.3 -0.125L10.921,0A0.427,0.427 0,0 0,10.493 0.427v1.22L6.45,2.731a0.427,0.427 0,0 0,-0.3 0.522l2.1,7.821L6.431,12.887a1.279,1.279 0,0 0,-1.056 -0.559h-4.1a1.281,1.281 0,0 0,-1.28 1.28v6.953a1.281,1.281 0,0 0,1.28 1.28h4.1a1.282,1.282 0,0 0,1.242 -0.972l0.507,0.442a2.149,2.149 0,0 0,1.413 0.529L21.415,21.84a0.427,0.427 0,0 0,0.427 -0.427L21.842,0.427A0.427,0.427 0,0 0,21.716 0.125ZM5.802,20.562a0.427,0.427 0,0 1,-0.427 0.427h-4.1a0.427,0.427 0,0 1,-0.427 -0.427L0.848,13.609a0.427,0.427 0,0 1,0.427 -0.427L2.901,13.182L2.901,18.1a0.427,0.427 0,1 0,0.853 0L3.754,13.182L5.375,13.182a0.427,0.427 0,0 1,0.427 0.427v6.953ZM7.083,3.444 L10.493,2.53L10.493,4.111l-0.286,0.077a0.427,0.427 0,0 0,-0.3 0.522A1.15,1.15 0,0 1,9.093 6.117a0.427,0.427 0,0 0,-0.3 0.523L10.456,12.8L9.599,12.8l-0.441,-1.726a0.426,0.426 0,0 0,-0.071 -0.15ZM10.493,6.067v3.6L9.716,6.786A2,2 0,0 0,10.493 6.067ZM16.623,20.989L8.537,20.989a1.3,1.3 0,0 1,-0.852 -0.319l-1.03,-0.9v-5.9l1.862,-1.862 0.338,1.322a0.427,0.427 0,0 0,0.413 0.321h8.387a0.6,0.6 0,1 1,0 1.194h-4.3a0.427,0.427 0,0 0,0 0.853L18.993,15.698a0.6,0.6 0,1 1,0 1.194L13.358,16.892a0.427,0.427 0,1 0,0 0.853h4.72a0.6,0.6 0,1 1,0 1.194h-4.72a0.427,0.427 0,0 0,0 0.853L16.623,19.792a0.6,0.6 0,1 1,0 1.194ZM20.988,20.989L17.944,20.989a1.445,1.445 0,0 0,0 -1.194h0.134a1.449,1.449 0,0 0,1.3 -2.1,1.449 1.449,0 0,0 0.78,-2.263L20.158,10.025a0.427,0.427 0,1 0,-0.853 0L19.305,14.88A1.451,1.451 0,0 0,18.993 14.846h-0.014A1.449,1.449 0,0 0,17.655 12.8h-0.686a2.042,2.042 0,1 0,-1.6 0L13.034,12.8L13.034,4.687A2.008,2.008 0,0 0,14.563 3.157h3.209a2.008,2.008 0,0 0,1.529 1.529L19.301,6.013a0.427,0.427 0,1 0,0.853 0L20.154,4.306a0.427,0.427 0,0 0,-0.427 -0.427,1.15 1.15,0 0,1 -1.149,-1.149A0.427,0.427 0,0 0,18.153 2.3L14.182,2.3a0.427,0.427 0,0 0,-0.427 0.427,1.15 1.15,0 0,1 -1.149,1.149 0.427,0.427 0,0 0,-0.427 0.427L12.179,12.8h-0.833L11.346,0.854L20.993,0.854ZM16.168,12.11a1.188,1.188 0,1 1,1.188 -1.188A1.19,1.19 0,0 1,16.168 12.109Z" fill="#004d9c"/>
</svg>
