<?xml version="1.0" ?>
<svg height="22.702" viewBox="0 0 22.701 22.702" width="22.701" xmlns="http://www.w3.org/2000/svg">
  <path d="M21.649,11.348l1,-2.6a0.71,0.71 0,0 0,-0.216 -0.806l-2.159,-1.75 -0.437,-2.747a0.709,0.709 0,0 0,-0.59 -0.589l-2.747,-0.437L14.748,0.262a0.71,0.71 0,0 0,-0.8 -0.216l-2.6,1 -2.6,-1a0.707,0.707 0,0 0,-0.8 0.216L6.198,2.422 3.447,2.86a0.711,0.711 0,0 0,-0.589 0.589L2.421,6.2 0.261,7.946a0.71,0.71 0,0 0,-0.216 0.8l1,2.6 -1,2.6a0.707,0.707 0,0 0,0.216 0.8L2.421,16.5l0.437,2.747a0.709,0.709 0,0 0,0.589 0.59l2.747,0.437 1.75,2.159a0.706,0.706 0,0 0,0.806 0.216l2.6,-0.994 2.6,1a0.71,0.71 0,0 0,0.806 -0.217l1.749,-2.159 2.747,-0.437a0.71,0.71 0,0 0,0.59 -0.59l0.437,-2.747 2.159,-1.749a0.708,0.708 0,0 0,0.216 -0.8Z" fill="#ff4e00"/>
  <path d="M11.501,11.504m-8.753,0a8.753,8.753 0,1 1,17.506 0a8.753,8.753 0,1 1,-17.506 0" fill="#00000000" stroke="#faa782" stroke-width="0.5"/>
</svg>
