<?xml version="1.0" ?>
<svg height="22.053" viewBox="0 0 17.533 22.053" width="17.533" xmlns="http://www.w3.org/2000/svg">
  <path d="M17.411,3.017L17.411,3.005a0.33,0.33 0,0 0,-0.1 -0.15,0.347 0.347,0 0,0 -0.115,-0.078l-0.033,-0.017L8.882,0.123a0.377,0.377 0,0 0,-0.228 0L0.369,2.759a0.377,0.377 0,0 0,-0.264 0.359v9.038a0.377,0.377 0,0 0,0.264 0.359l8.285,2.636a0.377,0.377 0,0 0,0.228 0l1.506,-0.479a0.377,0.377 0,1 0,-0.228 -0.718l-1.017,0.323L9.143,12.905a0.377,0.377 0,1 0,-0.753 0v1.368l-7.532,-2.4L0.858,3.393l2.511,-0.8L10.411,4.835l-1.645,0.523 -6.289,-2a0.377,0.377 0,1 0,-0.228 0.718l6.141,1.953L8.39,11.405a0.377,0.377 0,0 0,0.753 0L9.143,6.029l2.134,-0.678v2.5a0.377,0.377 0,0 0,0.377 0.377,0.385 0.385,0 0,0 0.113,-0.018l0.879,-0.28a0.377,0.377 0,1 0,-0.228 -0.718l-0.388,0.124L12.03,5.112l1.945,-0.619L13.975,6.715l-0.428,0.136a0.377,0.377 0,0 0,0.113 0.735,0.367 0.367,0 0,0 0.113,-0.018l0.691,-0.22a0.377,0.377 0,0 0,0.264 -0.359L14.728,4.252l1.948,-0.619v8.247l-0.49,0.156a0.377,0.377 0,0 0,0.205 0.725l0.021,-0.007 0.753,-0.24a0.377,0.377 0,0 0,0.264 -0.359L17.429,3.118A0.377,0.377 0,0 0,17.411 3.017ZM11.654,4.44 L4.611,2.199l1.457,-0.464L13.111,3.976ZM7.311,1.34L7.311,1.34 8.767,0.877 15.811,3.118Z" fill="#004d9c" stroke="#004d9c" stroke-width="0.21"/>
  <path d="M1.988,9.52a0.377,0.377 0,0 0,-0.377 0.377v1.13a0.377,0.377 0,1 0,0.753 0v-1.13A0.377,0.377 0,0 0,1.988 9.52Z" fill="#004d9c" stroke="#004d9c" stroke-width="0.21"/>
  <path d="M3.495,9.896a0.377,0.377 0,0 0,-0.377 0.377v1.13a0.377,0.377 0,0 0,0.753 0v-1.13A0.377,0.377 0,0 0,3.495 9.896Z" fill="#004d9c" stroke="#004d9c" stroke-width="0.21"/>
  <path d="M14.793,10.649a0.377,0.377 0,0 0,-0.377 0.377v5.272a3.393,3.393 0,0 1,-3.389 3.389h-4.519a0.377,0.377 0,0 0,-0.377 0.377v0.783l-2.733,-1.913 2.733,-1.913v0.783a0.377,0.377 0,0 0,0.377 0.377h3.389a2.262,2.262 0,0 0,2.26 -2.26v-1.506a0.377,0.377 0,1 0,-0.753 0v1.506a1.506,1.506 0,0 1,-1.506 1.506h-3.013v-1.13a0.377,0.377 0,0 0,-0.592 -0.308l-3.766,2.636a0.377,0.377 0,0 0,0 0.617l3.766,2.636a0.377,0.377 0,0 0,0.592 -0.308v-1.13h4.143a4.147,4.147 0,0 0,4.143 -4.143v-5.272A0.377,0.377 0,0 0,14.793 10.649Z" fill="#004d9c" stroke="#004d9c" stroke-width="0.21"/>
  <path d="M11.78,11.779a0.377,0.377 0,0 0,-0.377 0.377v0.753a0.377,0.377 0,0 0,0.753 0v-0.753A0.377,0.377 0,0 0,11.78 11.779Z" fill="#004d9c" stroke="#004d9c" stroke-width="0.21"/>
  <path d="M14.793,8.39a0.377,0.377 0,0 0,-0.377 0.377v0.753a0.377,0.377 0,0 0,0.753 0v-0.753A0.377,0.377 0,0 0,14.793 8.39Z" fill="#004d9c" stroke="#004d9c" stroke-width="0.21"/>
  <path d="M13.286,9.896a0.377,0.377 0,0 0,-0.377 0.377v3.013a0.377,0.377 0,0 0,0.753 0v-3.013A0.377,0.377 0,0 0,13.286 9.896Z" fill="#004d9c" stroke="#004d9c" stroke-width="0.21"/>
</svg>
