<svg xmlns="http://www.w3.org/2000/svg" width="29.793" height="38.077" viewBox="0 0 29.793 38.077"><defs><style>.a{fill:#e11a2c;}.b{fill:#fff;}.c{fill:#4ca9ef;}.d{fill:#2b2d83;}</style></defs><g transform="translate(-292.684 -460.975)"><g transform="translate(-15617 754)"><g transform="translate(15912 -279.085)"><path class="a" d="M25.1,22.6H1.7A1.481,1.481,0,0,1,.5,21V2.1C.5,1.2,1,.5,1.7.5H25.1a1.481,1.481,0,0,1,1.2,1.6V21A1.481,1.481,0,0,1,25.1,22.6Z"/><path class="b" d="M1.7,1C1.3,1,1,1.5,1,2.1V21c0,.6.3,1.1.7,1.1H25.1c.3,0,.7-.5.7-1.1V2.1c0-.6-.3-1.1-.7-1.1H1.7m0-1H25.1a1.933,1.933,0,0,1,1.7,2.1V21c0,1.2-.7,2.1-1.7,2.1H1.7C.7,23.1,0,22.2,0,21V2.1C0,.9.7,0,1.7,0Z"/></g><g transform="translate(15912 -259.548)"><path class="c" d="M2.3,0H24.5a2.263,2.263,0,0,1,2.3,2.3h0a2.263,2.263,0,0,1-2.3,2.3H2.3A2.263,2.263,0,0,1,0,2.3H0A2.263,2.263,0,0,1,2.3,0Z"/><path class="b" d="M24.5,4.6H2.3A2.263,2.263,0,0,1,0,2.3,2.263,2.263,0,0,1,2.3,0H24.5a2.263,2.263,0,0,1,2.3,2.3A2.326,2.326,0,0,1,24.5,4.6ZM2.3,1A1.324,1.324,0,0,0,1,2.3,1.324,1.324,0,0,0,2.3,3.6H24.5a1.324,1.324,0,0,0,1.3-1.3A1.324,1.324,0,0,0,24.5,1Z"/></g><path class="b" d="M15913.6-283.2l-2.8,4.8a1.993,1.993,0,0,0,.7,2.8c.1.1.2.1.3.2,2.1,1,4.6-1.1,4.6-1.1s.6-.7,1.6.3a4.767,4.767,0,0,0,2.2,1.2,3.931,3.931,0,0,0,2.4-.3,9.073,9.073,0,0,0,1.6-1.1,1.214,1.214,0,0,1,1.6,0l.1.1a5.456,5.456,0,0,0,2.5,1.3,2.579,2.579,0,0,0,2.1-.3,13.789,13.789,0,0,0,1.7-1.2s.6-.6,1.7.1a13.214,13.214,0,0,0,2,1.2,2.352,2.352,0,0,0,2.4-.4,1.952,1.952,0,0,0,1-2.2l-.7-1.5-2.4-4.1Z"/><path class="c" d="M15929-274.4a1.949,1.949,0,0,1-.8-.1,8.668,8.668,0,0,1-2.7-1.4l-.1-.1a.763.763,0,0,0-.5-.2c-.2,0-.3.1-.5.2a9.888,9.888,0,0,1-1.7,1.1,4.5,4.5,0,0,1-2.8.4,5.223,5.223,0,0,1-2.5-1.4c-.3-.3-.4-.4-.7-.4a.351.351,0,0,0-.2.1c-.1.1-2.8,2.4-5.2,1.2a.763.763,0,0,1-.4-.2,2.471,2.471,0,0,1-.8-3.5l2.9-5,23.1-.1,2.5,4.3.8,1.6a2.487,2.487,0,0,1-1.3,2.8,2.773,2.773,0,0,1-2.8.4,10.49,10.49,0,0,1-2.1-1.2c-.6-.4-1-.2-1-.1a11.291,11.291,0,0,1-1.7,1.2A2.235,2.235,0,0,1,15929-274.4Zm-4-2.8h0a1.656,1.656,0,0,1,1.2.5l.1.1a7.76,7.76,0,0,0,2.2,1.2,2.017,2.017,0,0,0,1.7-.2c.9-.6,1.6-1.1,1.6-1.1a1.762,1.762,0,0,1,2.3.1,18.481,18.481,0,0,0,1.9,1.1,2.191,2.191,0,0,0,1.9-.3,1.613,1.613,0,0,0,.9-1.7l-.7-1.4-2.2-3.8-22,.1-2.6,4.5a1.576,1.576,0,0,0,.5,2.1c.1,0,.2.1.3.1,1.9.9,4.1-1,4.1-1h0a1.314,1.314,0,0,1,.9-.3,1.892,1.892,0,0,1,1.4.7,4.334,4.334,0,0,0,2,1.1,3.858,3.858,0,0,0,2.1-.3,7.112,7.112,0,0,0,1.4-1C15924.1-277.1,15924.5-277.2,15925-277.2Z"/><g transform="translate(15916 -271.934)"><path class="b" d="M1.9,0,3.3,4.1h0L4.6,0H6.5V6H5.2V1.8h0L3.8,6H2.7L1.3,1.8h0V6H0V0Z"/><path class="b" d="M10.4,3.1c0-.2,0-.5-.2-.6a.735.735,0,0,0-.6-.2,1.268,1.268,0,0,0-.6.1,1.034,1.034,0,0,0-.1.4H7.7a1.1,1.1,0,0,1,.6-1,2.822,2.822,0,0,1,1.5-.4,2.822,2.822,0,0,1,1.5.4,2.106,2.106,0,0,1,.5,1.3V6H10.7l-.1-.6h0A3.394,3.394,0,0,1,10,6a2.92,2.92,0,0,1-.9.2A1.884,1.884,0,0,1,8.3,6a1.024,1.024,0,0,1-.6-.5,1.884,1.884,0,0,1-.2-.8,1.149,1.149,0,0,1,.6-1.1,3.287,3.287,0,0,1,1.7-.4h.7ZM9.9,4a1.949,1.949,0,0,0-.8.1.55.55,0,0,0-.3.5c0,.2,0,.4.2.5a.764.764,0,0,0,.5.2.9.9,0,0,0,.5-.1c.1-.1.3-.2.3-.3a.9.9,0,0,0,.1-.5V4Z"/><path class="b" d="M15.6,2.6h-.4a.975.975,0,0,0-.9.4A1.493,1.493,0,0,0,14,4V6H12.8V1.5H14v.8h0a1.794,1.794,0,0,1,.5-.7,1.135,1.135,0,0,1,.8-.3h.4Z"/><path class="b" d="M17.8,1.5h.9v.8h-.9v2a.9.9,0,0,0,.1.5.215.215,0,0,0,.2.2c.1,0,.2.1.3.1h.3V6a1.268,1.268,0,0,1-.6.1,1.922,1.922,0,0,1-1.2-.4,1.374,1.374,0,0,1-.4-1.2V2.3h-.7V1.5h.7V.2h1.2Z"/></g></g><rect class="c" width="7.3" height="1" transform="matrix(0.274, -0.962, 0.962, 0.274, 299.005, 477.319)"/><rect class="c" width="1" height="7.3" transform="translate(313.013 470.671) rotate(-15.945)"/><rect class="c" width="1" height="7" transform="translate(308 470.5)"/><g transform="translate(301 460.975)"><path class="d" d="M7.1,0a7.1,7.1,0,1,0,7.1,7.1A7.193,7.193,0,0,0,7.1,0Z"/><path class="b" d="M5,4.3H4.8c-.5,0-.7.2-.7.7V7.4c0,.6-.2.8-.7.8a1.389,1.389,0,0,1-1-.5c-.3.2-.6.6-.5.9,0,.7.6,1,1.7,1q2.1.15,2.1-2.1V5C5.7,4.5,5.5,4.3,5,4.3ZM7.1,5.5H7c-.4,0-.7.2-.7.8V8.9c0,.6.3.8.7.8h.2c.4,0,.7-.2.7-.8V6.2a.761.761,0,0,0-.8-.7ZM7,3.6c-.4-.1-.7.2-.8.6h0v.1a.684.684,0,0,0,.7.7H7a.641.641,0,0,0,.8-.6h0V4.3a.684.684,0,0,0-.7-.7Zm3.5,1.8A2.036,2.036,0,0,0,8.3,7.3a2.212,2.212,0,0,0,1.9,2.4h.3a2.017,2.017,0,0,0,2.2-1.8V7.6a2.094,2.094,0,0,0-2-2.1h0a.31.31,0,0,0-.2-.1Zm-.1,3.1a1.063,1.063,0,0,1-1-.9c-.1-.5.4-.9.9-1a1.063,1.063,0,0,1,1,.9h0c.1.5-.3.9-.9,1Z"/></g></g></svg>