<?xml version="1.0" ?>
<svg height="11" viewBox="0 0 10.489 11" width="10.489" xmlns="http://www.w3.org/2000/svg">
  <path d="M8.48,1.051 L8.78,2.929 10.48,3.8l-0.861,1.7 0.866,1.7 -1.722,0.871 -0.3,1.878 -1.893,-0.3L5.23,11 3.88,9.638l-1.878,0.311 -0.3,-1.893 -1.7,-0.866 0.866,-1.7L0.005,3.8l1.708,-0.881 0.3,-1.863 1.883,0.311L5.245,0 6.592,1.348l1.888,-0.3M4.028,3.07a0.73,0.73 0,1 0,0.73 0.73,0.73 0.73,0 0,0 -0.73,-0.73M6.461,6.475a0.73,0.73 0,1 0,0.73 0.73,0.73 0.73,0 0,0 -0.73,-0.73M3.498,7.935 L7.68,3.756 6.991,3.07 2.812,7.249Z" fill="#079a18"/>
</svg>
