<?xml version="1.0" ?>
<svg height="13.422" viewBox="0 0 13.422 13.422" width="13.422" xmlns="http://www.w3.org/2000/svg">
  <g>
    <path d="M6.711,0L6.711,0A6.711,6.711 0,0 1,13.422 6.711L13.422,6.711A6.711,6.711 0,0 1,6.711 13.422L6.711,13.422A6.711,6.711 0,0 1,0 6.711L0,6.711A6.711,6.711 0,0 1,6.711 0z" fill="#079a18" stroke="#00000000"/>
    <path d="M6.711,0.5L6.711,0.5A6.211,6.211 0,0 1,12.922 6.711L12.922,6.711A6.211,6.211 0,0 1,6.711 12.922L6.711,12.922A6.211,6.211 0,0 1,0.5 6.711L0.5,6.711A6.211,6.211 0,0 1,6.711 0.5z" fill="#00000000" stroke="#079a18" stroke-width="1"/>
    <path d="M10.695,4.071a0.423,0.423 0,0 0,-0.6 0L5.036,9.134 3.09,7.188a0.423,0.423 0,1 0,-0.6 0.6L4.737,10.03a0.423,0.423 0,0 0,0.6 0l5.361,-5.361A0.423,0.423 0,0 0,10.695 4.071Z" fill="#fff"/>
  </g>
</svg>
