<?xml version="1.0" ?>
<svg height="20.24" viewBox="0 0 14.231 20.24" width="14.231" xmlns="http://www.w3.org/2000/svg">
  <path d="M7.116,0a7.117,7.117 0,0 0,-6.054 10.857l5.649,9.1a0.593,0.593 0,0 0,0.5 0.28h0a0.593,0.593 0,0 0,0.5 -0.288l5.5,-9.191A7.117,7.117 0,0 0,7.116 0ZM12.21,10.152l-5,8.356L2.07,10.233a5.934,5.934 0,1 1,10.14 -0.08Z" fill="#3498db"/>
  <path d="M7.116,3.558a3.558,3.558 0,1 0,3.558 3.558A3.562,3.562 0,0 0,7.116 3.558ZM7.116,9.496a2.38,2.38 0,1 1,2.376 -2.38A2.382,2.382 0,0 1,7.116 9.496Z" fill="#3498db"/>
</svg>
