<?xml version="1.0" encoding="utf-8"?>
<!-- Generator: Adobe Illustrator 24.0.1, SVG Export Plug-In . SVG Version: 6.00 Build 0)  -->
<svg version="1.1" id="Layer_1" xmlns="http://www.w3.org/2000/svg" xmlns:xlink="http://www.w3.org/1999/xlink" x="0px" y="0px"
	 viewBox="0 0 21.5 20.7" style="enable-background:new 0 0 21.5 20.7;" xml:space="preserve"  height="20px">
<style type="text/css">
	.st0{fill:#FFFFFF;}
	.st1{fill:#959595;}
</style>
<g>
	<path class="st0" d="M68.8,16.4c-1.1,0-2,0.9-2,2s0.9,2,2,2s2-0.9,2-2l0,0C70.9,17.3,70,16.4,68.8,16.4 M79,16.4c-1.1,0-2,0.9-2,2
		s0.9,2,2,2s2-0.9,2-2l0,0C81.1,17.3,80.2,16.4,79,16.4 M69,13.1l0-0.1l0.9-1.7h7.6c0.7,0,1.4-0.4,1.8-1.1l3.9-7.2l-1.8-1h0l-1.1,2
		l-2.8,5.1h-7.2L70.3,9L68,4.2l-1-2l-1-2h-3.3v2h2l3.7,7.7L67,12.4c-0.2,0.3-0.3,0.6-0.3,1c0,1.1,0.9,2,2,2l0,0h12.3v-2H69.3
		C69.1,13.3,69,13.2,69,13.1z"/>
	<path d="M79,20.9c-1.3,0-2.4-1.1-2.4-2.4c0-1.3,1.1-2.4,2.4-2.4s2.4,1.1,2.4,2.4C81.5,19.8,80.4,20.9,79,20.9z M79,16.8
		c-0.9,0-1.7,0.7-1.7,1.7s0.7,1.7,1.7,1.7s1.7-0.7,1.7-1.7S80,16.8,79,16.8z M68.8,20.9c-1.3,0-2.4-1.1-2.4-2.4
		c0-1.3,1.1-2.4,2.4-2.4c1.3,0,2.4,1.1,2.4,2.4C71.2,19.8,70.2,20.9,68.8,20.9z M68.8,16.8c-0.9,0-1.7,0.7-1.7,1.7s0.7,1.7,1.7,1.7
		s1.7-0.7,1.7-1.7S69.7,16.8,68.8,16.8z M81.5,15.8H68.8c-1.3,0-2.4-1.1-2.4-2.4c0-0.4,0.1-0.8,0.3-1.2L68,9.8l-3.5-7.4h-2.2v-2.8h4
		l4.3,9.2h6.7l3.9-7.1l0.4,0l2.1,1.2l-4.1,7.5c-0.4,0.8-1.2,1.2-2.1,1.2c0,0,0,0,0,0h-7.4L69.5,13h12V15.8z M63.1,1.7H65l3.9,8.1
		l-1.5,2.7c-0.1,0.2-0.2,0.5-0.2,0.8c0,0.9,0.7,1.7,1.7,1.7h11.9v-1.3H69.3c-0.3,0-0.6-0.3-0.6-0.6l0,0l0.1-0.3l1-1.9h7.8
		c0,0,0,0,0,0c0.6,0,1.2-0.3,1.5-0.9l3.8-6.8l-1.1-0.6l-3.9,7h-7.6l-4.4-9.2h-2.7V1.7z"/>
</g>
<g>
	<path class="st1" d="M17.2,20.6c1,0,1.7-0.8,1.7-1.7s-0.8-1.7-1.7-1.7s-1.7,0.8-1.7,1.7S16.2,20.6,17.2,20.6z"/>
	<path class="st1" d="M6.5,20.6c1,0,1.7-0.8,1.7-1.7s-0.8-1.7-1.7-1.7s-1.7,0.8-1.7,1.7S5.5,20.6,6.5,20.6z"/>
	<path class="st1" d="M6.5,9.9L5,12.7c-0.1,0.3-0.2,0.5-0.2,0.8c0,1,0.8,1.7,1.7,1.7h12.4V14H7c-0.4,0-0.7-0.3-0.7-0.7l0-0.1L6.4,13
		L7.5,11h8.2c0,0,0,0,0,0c0.6,0,1.2-0.3,1.5-0.9L21.1,3l-1.2-0.7l-4,7.3h-8L3.3,0.1H0.5v1.4h2L6.5,9.9z"/>
</g>
</svg>
