<svg xmlns="http://www.w3.org/2000/svg" width="14.603" height="15.677" viewBox="0 0 14.603 15.677">
  <g id="Group_27328" data-name="Group 27328" transform="translate(-2123.566 -682.445)">
    <path id="Path_64771" data-name="Path 64771" d="M2133.627,695.684v10.535a1.6,1.6,0,0,0,1.6,1.6h6.7a1.6,1.6,0,0,0,1.59-1.534c0-.021.006-.04.006-.062V695.684" transform="translate(-7.705 -10.293)" fill="none" stroke="#0066c0" stroke-miterlimit="10" stroke-width="1.2"/>
    <line id="Line_7291" data-name="Line 7291" x1="13.403" transform="translate(2124.167 685.391)" fill="none" stroke="#0066c0" stroke-linecap="round" stroke-miterlimit="10" stroke-width="1.2"/>
    <line id="Line_7292" data-name="Line 7292" y2="6.003" transform="translate(2128.36 688.571)" fill="none" stroke="#0066c0" stroke-linecap="round" stroke-miterlimit="10" stroke-width="1.2"/>
    <line id="Line_7293" data-name="Line 7293" y2="6.003" transform="translate(2130.868 688.571)" fill="none" stroke="#0066c0" stroke-linecap="round" stroke-miterlimit="10" stroke-width="1.2"/>
    <line id="Line_7294" data-name="Line 7294" y2="6.003" transform="translate(2133.376 688.571)" fill="none" stroke="#0066c0" stroke-linecap="round" stroke-miterlimit="10" stroke-width="1.2"/>
    <path id="Path_64772" data-name="Path 64772" d="M2149.367,685.391v-.75a1.6,1.6,0,0,0-1.6-1.6h-3.245a1.6,1.6,0,0,0-1.59,1.535c0,.021-.006.04-.006.062v.75" transform="translate(-15.281 0)" fill="none" stroke="#0066c0" stroke-miterlimit="10" stroke-width="1.2"/>
  </g>
</svg>
