<?xml version="1.0" encoding="utf-8"?>
<!-- Generator: Adobe Illustrator 23.1.1, SVG Export Plug-In . SVG Version: 6.00 Build 0)  -->
<svg version="1.1" id="Layer_1" xmlns="http://www.w3.org/2000/svg" xmlns:xlink="http://www.w3.org/1999/xlink" x="0px" y="0px"
	 viewBox="0 0 24.4 21.4" style="enable-background:new 0 0 24.4 21.4;" xml:space="preserve"  height="20px">
<style type="text/css">
	.st0{fill:#214796;}
	.st1{fill:#1A408E;}
	.st2{fill:#FFFFFF;}
	.kk{fill:#004D9C;}
</style>
<g id="Component_1_1" transform="translate(0.99 0.7)">
	<g id="Group_19655" transform="translate(-26.618 -626)">
		<g id="Path_5083">
			<path class="kk" d="M45.3,633.4V646H30.3v-12.5l7.4-7.4L45.3,633.4z"/>
			<path class="kk" d="M45.3,646.7H30.3c-0.4,0-0.7-0.3-0.7-0.7v-12.5c0-0.2,0.1-0.4,0.2-0.5l7.4-7.4c0.3-0.3,0.7-0.3,1,0l7.5,7.3
				c0.1,0.1,0.2,0.3,0.2,0.5V646C46,646.4,45.7,646.7,45.3,646.7z M31,645.3h13.5v-11.6l-6.8-6.6l-6.7,6.7V645.3z"/>
		</g>
		<g id="Path_5084">
			<path class="st1" d="M26.6,637.9c-0.2,0-0.4-0.1-0.5-0.2c-0.3-0.3-0.3-0.7,0-1l11.2-11.2c0.3-0.3,0.7-0.3,1,0l11.2,11.2
				c0.3,0.3,0.3,0.7,0,1s-0.7,0.3-1,0L37.8,627l-10.7,10.7C27,637.9,26.8,637.9,26.6,637.9z"/>
		</g>
	</g>
	<g id="Path_52558">
		<path class="st2" d="M13.5,20.5c-0.3,0-0.5-0.2-0.5-0.5v-6H9.3v6c0,0.3-0.2,0.5-0.5,0.5S8.3,20.3,8.3,20v-6.5
			c0-0.3,0.2-0.5,0.5-0.5h4.7c0.3,0,0.5,0.2,0.5,0.5V20C14,20.3,13.8,20.5,13.5,20.5z"/>
	</g>
</g>
</svg>
