<?xml version="1.0" ?>
<svg height="21.135" viewBox="0 0 12.361 21.135" width="12.361" xmlns="http://www.w3.org/2000/svg">
  <path d="M11.918,7.383a0.326,0.326 0,0 0,-0.305 -0.2h-4l3.965,-6.27a0.308,0.308 0,0 0,0 -0.339A0.356,0.356 0,0 0,11.274 0.401h-5.423a0.356,0.356 0,0 0,-0.305 0.169l-5.084,10.167a0.308,0.308 0,0 0,0 0.339,0.4 0.4,0 0,0 0.305,0.169h3.491l-3.8,9.049a0.338,0.338 0,0 0,0.136 0.407,0.254 0.254,0 0,0 0.169,0.034 0.385,0.385 0,0 0,0.271 -0.1L11.884,7.755A0.364,0.364 0,0 0,11.918 7.383ZM1.954,18.465 L5.072,11.009a0.33,0.33 0,0 0,-0.034 -0.305,0.418 0.418,0 0,0 -0.271,-0.136L1.31,10.568l4.745,-9.49h4.609l-4,6.27a0.308,0.308 0,0 0,0 0.339,0.356 0.356,0 0,0 0.305,0.169h3.931Z" fill="#fff" stroke="#f6f6f6" stroke-width="0.8"/>
</svg>
