<?xml version="1.0" ?>
<svg height="15.12" viewBox="0 0 69.5 15.12" width="69.5" xmlns="http://www.w3.org/2000/svg">
  <path d="M8.78,10.62a4.66,4.66 0,0 1,-1.09 3.37,4.46 4.46,0 0,1 -3.33,1.13 5.12,5.12 0,0 1,-2.34 -0.5A3.48,3.48 0,0 1,0.54 13.18a4.58,4.58 0,0 1,-0.52 -2.26v-0.26L2.28,10.66a2.76,2.76 0,0 0,0.48 1.78,1.9 1.9,0 0,0 1.56,0.58A2,2 0,0 0,5.54 12.71,1.59 1.59,0 0,0 6.12,11.8a5.14,5.14 0,0 0,0.16 -1.42L6.28,0.98h2.5Z" fill="#fff"/>
  <path d="M13.77,2.33a1.37,1.37 0,0 1,-1 0.39,1.34 1.34,0 0,1 -1,-0.39 1.31,1.31 0,0 1,-0.39 -1,1.31 1.31,0 0,1 0.39,-1 1.34,1.34 0,0 1,1 -0.39,1.37 1.37,0 0,1 1,0.39 1.31,1.31 0,0 1,0.39 1A1.31,1.31 0,0 1,13.77 2.33ZM13.9,4.46L13.9,14.8L11.62,14.8L11.62,4.46Z" fill="#fff"/>
  <path d="M25.54,12.47a4.56,4.56 0,0 1,-1.77 1.92,5.06 5.06,0 0,1 -2.65,0.69 5,5 0,0 1,-2.69 -0.7,4.63 4.63,0 0,1 -1.76,-1.93 6.21,6.21 0,0 1,-0.61 -2.81A6.31,6.31 0,0 1,16.72 6.8a4.57,4.57 0,0 1,1.76 -1.93,5.07 5.07,0 0,1 2.68,-0.69 5,5 0,0 1,2.68 0.7A4.64,4.64 0,0 1,25.59 6.8a6.28,6.28 0,0 1,0.61 2.82A6.24,6.24 0,0 1,25.54 12.47ZM22.64,12.85a2.86,2.86 0,0 0,0.94 -1.31,5.37 5.37,0 0,0 0.32,-1.9A5.65,5.65 0,0 0,23.65 7.8a3,3 0,0 0,-0.92 -1.36,2.63 2.63,0 0,0 -3.07,-0.05 3,3 0,0 0,-0.95 1.3,5.2 5.2,0 0,0 -0.33,1.93 5.44,5.44 0,0 0,0.32 1.92,2.78 2.78,0 0,0 0.95,1.3 2.7,2.7 0,0 0,3 0Z" fill="#fff"/>
  <path d="M32.18,0.98l3.7,10.32h0L39.54,0.98h3.54L43.08,14.8L40.7,14.8L40.7,4.32h0L36.86,14.8h-2L31.04,4.36h0L31.04,14.8L28.62,14.8L28.62,0.98Z" fill="#fff"/>
  <path d="M52.14,8a2.66,2.66 0,0 0,-0.45 -1.67A1.89,1.89 0,0 0,50.12 5.8c-1.29,0 -2,0.47 -2.12,1.4L45.74,7.2a2.85,2.85 0,0 1,0.64 -1.62,3.44 3.44,0 0,1 1.54,-1 6.91,6.91 0,0 1,2.3 -0.35,4.5 4.5,0 0,1 3.15,1 3.88,3.88 0,0 1,1 3L54.37,14.8h-2l-0.16,-1.42h0a3,3 0,0 1,-1.19 1.21,3.94 3.94,0 0,1 -2.05,0.49 4.38,4.38 0,0 1,-1.88 -0.38,2.83 2.83,0 0,1 -1.24,-1.1A3.35,3.35 0,0 1,45.38 11.8a2.72,2.72 0,0 1,1.33 -2.53A7.55,7.55 0,0 1,50.54 8.52h1.6ZM50.86,9.94a5.54,5.54 0,0 0,-2.39 0.4,1.42 1.42,0 0,0 -0.81,1.38 1.5,1.5 0,0 0,0.5 1.23,2.1 2.1,0 0,0 1.36,0.41 2.84,2.84 0,0 0,1.34 -0.31,2.25 2.25,0 0,0 0.94,-0.92 2.85,2.85 0,0 0,0.34 -1.43v-0.76Z" fill="#fff"/>
  <path d="M62.9,6.38a4,4 0,0 0,-0.82 -0.08,2.62 2.62,0 0,0 -2.17,0.92 3.79,3.79 0,0 0,-0.73 2.44L59.18,14.8L56.92,14.8L56.92,4.46h2.18v1.86h0A3.2,3.2 0,0 1,60.27 4.8a3,3 0,0 1,1.85 -0.58,3.81 3.81,0 0,1 0.78,0.08Z" fill="#fff"/>
  <path d="M67.38,4.46h2v1.6h-2L67.38,11.3A3.53,3.53 0,0 0,67.54 12.41a1,1 0,0 0,0.42 0.55,1.51 1.51,0 0,0 0.76,0.16 3.43,3.43 0,0 0,0.8 -0.1L69.52,14.8a4.18,4.18 0,0 1,-1.24 0.18,3.25 3.25,0 0,1 -2.35,-0.78 3.53,3.53 0,0 1,-0.81 -2.62v-5.5L63.42,6.08L63.42,4.46h1.68L65.1,1.36h2.28Z" fill="#fff"/>
</svg>
