<?xml version="1.0" ?>
<svg height="11.179" viewBox="0 0 13.849 11.179" width="13.849" xmlns="http://www.w3.org/2000/svg">
  <path d="M5.6991,2.75h3.3l-0.33,0.659L7.5911,3.409a1.808,1.808 0,0 1,0.346 0.659h1.058l-0.33,0.659L8.0061,4.727A1.832,1.832 0,0 1,6.4241 6.363v0.013L6.1931,6.376L8.1691,8.683L7.3471,8.683L5.3691,6.376L5.3691,5.717h0.824a1.151,1.151 0,0 0,1.141 -0.989L5.3691,4.728l0.33,-0.659L7.2351,4.069a1.152,1.152 0,0 0,-1.042 -0.659L5.3691,3.41Z" fill="#333"/>
  <path d="M12.264,9.594L1.585,9.594L1.585,1.585L12.264,1.585m0,-1.335L1.585,0.25A1.33,1.33 0,0 0,0.25 1.585v8.009a1.335,1.335 0,0 0,1.335 1.335L12.264,10.929a1.335,1.335 0,0 0,1.335 -1.335L13.599,1.585A1.335,1.335 0,0 0,12.264 0.25" fill="#333" stroke="#fff" stroke-width="0.5"/>
</svg>
