<svg xmlns="http://www.w3.org/2000/svg" width="41.035" height="41.035" viewBox="0 0 41.035 41.035">
  <g id="Symbol_124_1" data-name="Symbol 124 – 1" transform="translate(-34 -264)">
    <g id="Group_6721" data-name="Group 6721" transform="translate(34 264)">
      <g id="Hold" transform="translate(0 0)">
        <g id="Group_3979" data-name="Group 3979">
          <path id="Path_2611" data-name="Path 2611" d="M20.518,38.1A17.587,17.587,0,1,0,2.931,20.518,17.607,17.607,0,0,0,20.518,38.1m0,2.931A20.518,20.518,0,1,1,41.035,20.518,20.515,20.515,0,0,1,20.518,41.035" fill="#e57b00"/>
        </g>
      </g>
    </g>
    <g id="Group_6801" data-name="Group 6801" transform="translate(-588.276 -3672)">
      <path id="Path_4144" data-name="Path 4144" d="M598.82,3955.9l7.653-.989s-2.6,8.065-3.808,13.2l-.3,1.356s-.378,1.519,1.05.744a8.856,8.856,0,0,0,2.056-2.471l.632.37s-1.753,3.567-4.4,4.661-4.131-.69-4.309-1.336a4.091,4.091,0,0,1,.178-2.446c.351-1.493,2.77-9.565,2.77-9.565s1.239-3.314-1.707-2.788Z" transform="translate(39 -3)" fill="#e57b00"/>
      <circle id="Ellipse_288" data-name="Ellipse 288" cx="3" cy="3" r="3" transform="translate(641 3944)" fill="#e57b00"/>
    </g>
  </g>
</svg>
