<svg xmlns="http://www.w3.org/2000/svg" width="11.994" height="17.058" viewBox="0 0 11.994 17.058"><defs><style>.a{fill:#fff;}</style></defs><g transform="translate(-76 0)"><g transform="translate(76)"><path class="a" d="M82,0a6,6,0,0,0-5.1,9.15l4.76,7.671a.5.5,0,0,0,.425.236h0a.5.5,0,0,0,.425-.243l4.639-7.746A6,6,0,0,0,82,0ZM86.29,8.556,82.073,15.6,77.745,8.624a5,5,0,1,1,8.546-.068Z" transform="translate(-76)"/></g><g transform="translate(78.998 2.998)"><path class="a" d="M169,90a3,3,0,1,0,3,3A3,3,0,0,0,169,90Zm0,5A2.006,2.006,0,1,1,171,93,2.007,2.007,0,0,1,169,95Z" transform="translate(-166 -90)"/></g></g></svg>