<?xml version="1.0" encoding="utf-8"?>
<!-- Generator: Adobe Illustrator 23.1.1, SVG Export Plug-In . SVG Version: 6.00 Build 0)  -->
<svg version="1.1" id="Layer_1" xmlns="http://www.w3.org/2000/svg" xmlns:xlink="http://www.w3.org/1999/xlink" x="0px" y="0px"
	 viewBox="0 0 18.5 11.4" style="enable-background:new 0 0 18.5 11.4;" xml:space="preserve" width="22px"  height="20px">
<style type="text/css">
	.st0{fill:#959595;}
</style>
<g id="Component_5_1" transform="translate(0.8 0.8)">
	<g id="Line_369">
		<path class="st0" d="M16.4,0.8h-16C0,0.8-0.4,0.4-0.4,0S0-0.8,0.4-0.8h16c0.4,0,0.8,0.4,0.8,0.8S16.9,0.8,16.4,0.8z"/>
	</g>
	<g id="Line_370">
		<path class="st0" d="M16.9,5.9H0c-0.4,0-0.8-0.4-0.8-0.8S-0.4,4.3,0,4.3h16.9c0.4,0,0.8,0.4,0.8,0.8S17.3,5.9,16.9,5.9z"/>
	</g>
	<g id="Line_371">
		<path class="st0" d="M16.9,10.6H0c-0.4,0-0.8-0.4-0.8-0.8S-0.4,9,0,9h16.9c0.4,0,0.8,0.4,0.8,0.8S17.3,10.6,16.9,10.6z"/>
	</g>
</g>
</svg>
