<?xml version="1.0" encoding="utf-8"?>
<!-- Generator: Adobe Illustrator 24.0.1, SVG Export Plug-In . SVG Version: 6.00 Build 0)  -->
<svg version="1.1" id="Layer_1" xmlns="http://www.w3.org/2000/svg" xmlns:xlink="http://www.w3.org/1999/xlink" x="0px" y="0px"
	 viewBox="0 0 17.1 20" style="enable-background:new 0 0 17.1 20;" xml:space="preserve" height="20px">
<style type="text/css">
	.st0{fill:#959595;}
</style>
<g>
	<path class="st0" d="M8.6,8.8c2.4,0,4.4-2,4.4-4.4C12.9,2,11,0,8.6,0C6.1,0,4.2,2,4.2,4.4C4.2,6.8,6.1,8.8,8.6,8.8z M8.6,1.6
		c1.5,0,2.8,1.2,2.8,2.8c0,1.5-1.2,2.8-2.8,2.8S5.8,5.9,5.8,4.4C5.8,2.9,7,1.6,8.6,1.6z"/>
	<path class="st0" d="M8.6,9.8C3.8,9.8,0,13.6,0,18.3C0,19.3,0.7,20,1.7,20h13.8c0.9,0,1.7-0.7,1.7-1.7C17.1,13.6,13.3,9.8,8.6,9.8z
		 M15.4,18.4H1.7c0,0,0,0,0,0c0-3.8,3.1-6.9,6.9-6.9h0C12.4,11.4,15.5,14.5,15.4,18.4C15.5,18.4,15.5,18.4,15.4,18.4z"/>
</g>
</svg>
