<?xml version="1.0" encoding="utf-8"?>
<!-- Generator: Adobe Illustrator 23.1.1, SVG Export Plug-In . SVG Version: 6.00 Build 0)  -->
<svg version="1.1" id="Layer_1" xmlns="http://www.w3.org/2000/svg" xmlns:xlink="http://www.w3.org/1999/xlink" x="0px" y="0px"
	 viewBox="0 0 18.7 21.4" style="enable-background:new 0 0 18.7 21.4;" xml:space="preserve" height="20px">
<style type="text/css">
	.st0{fill:#959595;}
</style>
<g id="Component_3_1" transform="translate(0.7 0.7)">
	<g id="Group_27321" transform="translate(-177.999 -339)">
		<g id="Rectangle_7344">
			<path class="st0" d="M193.3,359.7H180c-1.5,0-2.7-1.2-2.7-2.7v-16c0-1.5,1.2-2.7,2.7-2.7h13.3c1.5,0,2.7,1.2,2.7,2.7v16
				C196,358.5,194.8,359.7,193.3,359.7z M180,339.7c-0.7,0-1.3,0.6-1.3,1.3v16c0,0.7,0.6,1.3,1.3,1.3h13.3c0.7,0,1.3-0.6,1.3-1.3
				v-16c0-0.7-0.6-1.3-1.3-1.3H180z"/>
		</g>
		<g id="Line_7065">
			<path class="st0" d="M192.1,344.2h-4.8c-0.4,0-0.7-0.3-0.7-0.7s0.3-0.7,0.7-0.7h4.8c0.4,0,0.7,0.3,0.7,0.7
				S192.5,344.2,192.1,344.2z"/>
		</g>
		<g id="Line_7066">
			<path class="st0" d="M182.1,345.4c-0.2,0-0.4-0.1-0.5-0.2c-0.3-0.3-0.3-0.7,0-1l2.2-2.2c0.3-0.3,0.7-0.3,1,0s0.3,0.7,0,1
				l-2.2,2.2C182.5,345.3,182.3,345.4,182.1,345.4z"/>
		</g>
		<g id="Line_7067">
			<path class="st0" d="M182.1,345.4c-0.2,0-0.4-0.1-0.5-0.2l-1-1c-0.3-0.3-0.3-0.7,0-1s0.7-0.3,1,0l1,1c0.3,0.3,0.3,0.7,0,1
				C182.5,345.3,182.3,345.4,182.1,345.4z"/>
		</g>
		<g id="Line_7068">
			<path class="st0" d="M192.1,349.7h-4.8c-0.4,0-0.7-0.3-0.7-0.7s0.3-0.7,0.7-0.7h4.8c0.4,0,0.7,0.3,0.7,0.7
				S192.5,349.7,192.1,349.7z"/>
		</g>
		<g id="Line_7069">
			<path class="st0" d="M182.1,350.8c-0.2,0-0.4-0.1-0.5-0.2c-0.3-0.3-0.3-0.7,0-1l2.2-2.2c0.3-0.3,0.7-0.3,1,0s0.3,0.7,0,1
				l-2.2,2.2C182.5,350.8,182.3,350.8,182.1,350.8z"/>
		</g>
		<g id="Line_7070">
			<path class="st0" d="M182.1,350.8c-0.2,0-0.4-0.1-0.5-0.2l-1-1c-0.3-0.3-0.3-0.7,0-1c0.3-0.3,0.7-0.3,1,0l1,1
				c0.3,0.3,0.3,0.7,0,1C182.5,350.8,182.3,350.8,182.1,350.8z"/>
		</g>
		<g id="Line_7071">
			<path class="st0" d="M192.1,355.2h-4.8c-0.4,0-0.7-0.3-0.7-0.7s0.3-0.7,0.7-0.7h4.8c0.4,0,0.7,0.3,0.7,0.7
				S192.5,355.2,192.1,355.2z"/>
		</g>
		<g id="Line_7072">
			<path class="st0" d="M182.1,356.3c-0.2,0-0.4-0.1-0.5-0.2c-0.3-0.3-0.3-0.7,0-1l2.2-2.2c0.3-0.3,0.7-0.3,1,0s0.3,0.7,0,1
				l-2.2,2.2C182.5,356.2,182.3,356.3,182.1,356.3z"/>
		</g>
		<g id="Line_7073">
			<path class="st0" d="M182.1,356.3c-0.2,0-0.4-0.1-0.5-0.2l-1-1c-0.3-0.3-0.3-0.7,0-1c0.3-0.3,0.7-0.3,1,0l1,1
				c0.3,0.3,0.3,0.7,0,1C182.5,356.2,182.3,356.3,182.1,356.3z"/>
		</g>
	</g>
</g>
</svg>
