<?xml version="1.0" encoding="utf-8"?>
<!-- Generator: Adobe Illustrator 24.0.2, SVG Export Plug-In . SVG Version: 6.00 Build 0)  -->
<svg version="1.1" id="Layer_1" xmlns="http://www.w3.org/2000/svg" xmlns:xlink="http://www.w3.org/1999/xlink" x="0px" y="0px"
	 viewBox="0 0 204.5 143.1" style="enable-background:new 0 0 204.5 143.1;" xml:space="preserve">
<style type="text/css">
	.st0{fill:#4C4335;}
	.st1{fill:#9EAF3A;}
	.st2{fill:#BCC943;}
	.st3{fill:#7B8426;}
	.st4{fill:#F9E4C7;}
	.st5{fill:#FFF2E1;}
	.st6{fill:#D8C571;}
	.st7{fill:#E2E2E2;}
	.st8{opacity:0.2;fill:#424242;enable-background:new    ;}
	.st9{fill:#004D9C;}
	.st10{fill:#01386F;}
	.st11{fill:#E01E1E;}
</style>
<g id="noaddress" transform="translate(759 -20987.996)">
	<g id="Group_12645">
		<g id="Group_12541" transform="translate(20 57)">
			<g id="Group_12539" transform="translate(-1332.5 20457.492)">
				<g id="Group_12519" transform="translate(740.109 552.508)">
					<g id="Group_12518">
						<rect id="Rectangle_2448" x="7" y="4.7" class="st0" width="0.4" height="55"/>
						<path id="Path_7531" class="st1" d="M7,14.8c-1.8-0.3-6.7-4.9-7-6.5S5.4-0.2,6.9,0s6.6,6.1,6.7,7.6S9.1,15.2,7,14.8z"/>
						<path id="Path_7532" class="st2" d="M0.9,10c2.8-3,6.4-5,10.5-5.9c-1.6-2-3.7-4-4.5-4.1C5.4-0.2-0.2,6.7,0,8.3
							C0.2,8.9,0.5,9.5,0.9,10L0.9,10z"/>
						<path id="Path_7533" class="st3" d="M10,10.4c-2.3,1-4.7,1.6-7.2,1.6C4.3,13.4,6,14.7,7,14.8c1.8,0.3,5.4-4,6.4-6.3
							C12.3,9.3,11.2,9.9,10,10.4L10,10.4z"/>
						<path id="Path_7534" class="st4" d="M7,13.9c-1.6-0.3-5.7-4.2-5.9-5.5s4.6-7.2,5.8-7.1s5.6,5.2,5.7,6.5S8.8,14.3,7,13.9z"/>
						<path id="Path_7535" class="st5" d="M6.9,1.3c-1.2-0.1-6,5.7-5.8,7.1C1.3,9,1.6,9.5,2.1,10c3.6,1.7,7.9,0.9,10.5-2
							c0-0.1,0-0.1,0-0.2C12.6,6.5,8.2,1.5,6.9,1.3z"/>
					</g>
				</g>
				<rect id="Rectangle_2449" x="553.5" y="611.9" class="st6" width="204.5" height="4.7"/>
			</g>
			<g id="Group_12540" transform="translate(-851.553 20662.496)">
				<g id="Group_12523" transform="translate(123.381 297.086)">
					<path id="Path_7542" class="st7" d="M3.6,3c2,0,3.6,1.6,3.6,3.6c0,0,0,0,0,0H0C0,4.6,1.6,3,3.6,3L3.6,3z"/>
					<path id="Path_7543" class="st7" d="M13.8,0c3.6,0,6.6,2.9,6.6,6.6H7.2C7.2,2.9,10.1,0,13.8,0z"/>
				</g>
				<g id="Group_12524" transform="translate(208.347 330.191)">
					<path id="Path_7544" class="st7" d="M3.6,3c2,0,3.6,1.6,3.6,3.6c0,0,0,0,0,0H0C0,4.6,1.6,3,3.6,3L3.6,3z"/>
					<path id="Path_7545" class="st7" d="M13.8,0c3.6,0,6.6,2.9,6.6,6.6H7.2C7.2,2.9,10.1,0,13.8,0z"/>
				</g>
				<g id="Group_12525" transform="translate(243.443 319.803)">
					<path id="Path_7546" class="st7" d="M3.6,3c2,0,3.6,1.6,3.6,3.6H0C0,4.6,1.6,3,3.6,3L3.6,3z"/>
					<path id="Path_7547" class="st7" d="M13.8,0c3.6,0,6.6,2.9,6.6,6.6c0,0,0,0,0,0H7.2C7.2,2.9,10.1,0,13.8,0z"/>
				</g>
				<g id="Group_12529" transform="translate(85.553 330.859)">
					<ellipse id="Ellipse_428" class="st8" cx="18.5" cy="46.4" rx="11.7" ry="3.1"/>
					<path id="Path_7600" class="st9" d="M18.5,0C8.3,0,0,8.3,0,18.5l0,0c0,10.2,18.5,27.8,18.5,27.8S37,28.7,37,18.5
						C37,8.3,28.7,0,18.5,0C18.5,0,18.5,0,18.5,0z M18.5,28.9c-5.7,0-10.4-4.7-10.4-10.4c0-5.7,4.7-10.4,10.4-10.4
						s10.4,4.7,10.4,10.4C28.9,24.3,24.3,28.9,18.5,28.9L18.5,28.9z"/>
					<path id="Path_7601" class="st10" d="M18.5,6.1c-6.9,0-12.4,5.6-12.4,12.4c0,6.9,5.6,12.4,12.4,12.4c6.9,0,12.4-5.6,12.4-12.4
						l0,0C30.9,11.7,25.4,6.1,18.5,6.1z M18.5,26.9c-4.6,0-8.4-3.7-8.4-8.4c0-4.6,3.7-8.4,8.4-8.4c4.6,0,8.4,3.7,8.4,8.4l0,0
						C26.9,23.1,23.1,26.9,18.5,26.9z"/>
				</g>
				<g id="Group_12530" transform="translate(224.085 366.518)">
					<path id="Path_7602" class="st8" d="M21.6,33.2c0,1.2-3.8,2.2-8.4,2.2s-8.4-1-8.4-2.2S8.6,31,13.2,31S21.6,31.9,21.6,33.2z"/>
					<path id="Path_7603" class="st9" d="M13.2,0C5.9,0,0,5.9,0,13.2c0,0,0,0,0,0c0,7.3,13.2,19.9,13.2,19.9s13.2-12.6,13.2-19.9
						C26.5,5.9,20.6,0,13.2,0L13.2,0z M13.2,20.7c-4.1,0-7.4-3.3-7.4-7.4c0-4.1,3.3-7.4,7.4-7.4c4.1,0,7.4,3.3,7.4,7.4
						C20.7,17.4,17.4,20.7,13.2,20.7C13.2,20.7,13.2,20.7,13.2,20.7z"/>
					<path id="Path_7604" class="st10" d="M13.2,4.4c-4.9,0-8.9,4-8.9,8.9s4,8.9,8.9,8.9c4.9,0,8.9-4,8.9-8.9
						C22.1,8.3,18.2,4.4,13.2,4.4L13.2,4.4z M13.2,19.2c-3.3,0-6-2.7-6-6c0-3.3,2.7-6,6-6c3.3,0,6,2.7,6,6l0,0
						C19.2,16.6,16.6,19.2,13.2,19.2z"/>
				</g>
				<g id="Group_12531" transform="translate(137.356 268.504)">
					<ellipse id="Ellipse_429" class="st8" cx="37.6" cy="94.1" rx="23.8" ry="6.3"/>
					<path id="Path_7605" class="st9" d="M37.6,0C16.8,0,0,16.8,0,37.6l0,0c0,20.8,37.6,56.5,37.6,56.5s37.6-35.8,37.6-56.5
						C75.2,16.8,58.4,0,37.6,0L37.6,0z M37.6,58.7c-11.7,0-21.1-9.4-21.1-21.1s9.4-21.1,21.1-21.1c11.7,0,21.1,9.4,21.1,21.1
						S49.3,58.7,37.6,58.7L37.6,58.7z"/>
					<path id="Path_7606" class="st10" d="M37.6,12.4c-13.9,0-25.2,11.3-25.2,25.2s11.3,25.2,25.2,25.2s25.2-11.3,25.2-25.2
						S51.5,12.4,37.6,12.4C37.6,12.4,37.6,12.4,37.6,12.4z M37.6,54.6c-9.4,0-17-7.6-17-17c0-9.4,7.6-17,17-17c9.4,0,17,7.6,17,17
						c0,0,0,0,0,0C54.6,47,47,54.6,37.6,54.6L37.6,54.6z"/>
				</g>
				<g id="Group_12532" transform="translate(167.396 299.415)">
					<path id="Path_7607" class="st7" d="M47.9,4.6c-5.1,0-9.2,4.1-9.2,9.2h18.3C57.1,8.7,53,4.6,47.9,4.6z"/>
					<path id="Path_7608" class="st7" d="M5.7,8C2.5,8,0,10.6,0,13.7h11.4C11.4,10.6,8.8,8,5.7,8L5.7,8z"/>
					<path id="Path_7609" class="st7" d="M25.1,0c-7.6,0-13.7,6.1-13.7,13.7h27.4C38.8,6.1,32.6,0,25.1,0C25.1,0,25.1,0,25.1,0
						L25.1,0z"/>
				</g>
				<g id="Group_12533" transform="translate(86.662 307.283)">
					<path id="Path_7610" class="st7" d="M18.6,3.3c-2.2,0-4,1.8-4,4h8C22.6,5.1,20.8,3.3,18.6,3.3z"/>
					<path id="Path_7611" class="st7" d="M7.3,0C3.3,0,0,3.3,0,7.3l0,0h14.6C14.6,3.3,11.4,0,7.3,0C7.3,0,7.3,0,7.3,0z"/>
				</g>
				<g id="Group_12534" transform="translate(111.854 280.908)">
					<path id="Path_7612" class="st7" d="M18.6,3.3c-2.2,0-4,1.8-4,4h8C22.6,5.1,20.8,3.3,18.6,3.3z"/>
					<path id="Path_7613" class="st7" d="M7.3,0C3.3,0,0,3.3,0,7.3h14.6C14.6,3.3,11.4,0,7.3,0L7.3,0L7.3,0z"/>
				</g>
				<g id="Group_12535" transform="translate(205.098 268.504)">
					<path id="Path_7614" class="st7" d="M18.6,3.3c-2.2,0-4,1.8-4,4h8C22.6,5.1,20.8,3.3,18.6,3.3z"/>
					<path id="Path_7615" class="st7" d="M7.3,0C3.3,0,0,3.3,0,7.3h14.6C14.6,3.3,11.4,0,7.3,0L7.3,0L7.3,0z"/>
				</g>
				<g id="Group_12536" transform="translate(118.238 322.876)">
					<path id="Path_7616" class="st7" d="M14.4,2.6c-1.7,0-3.1,1.4-3.1,3.1h6.2C17.5,3.9,16.1,2.6,14.4,2.6L14.4,2.6z"/>
					<path id="Path_7617" class="st7" d="M5.6,0C2.5,0,0,2.5,0,5.6h11.3C11.3,2.5,8.8,0,5.6,0C5.7,0,5.6,0,5.6,0z"/>
				</g>
				<g id="Group_12537" transform="translate(234.011 295.376)">
					<path id="Path_7618" class="st7" d="M18.6,3.3c-2.2,0-4,1.8-4,4h8C22.6,5.1,20.8,3.3,18.6,3.3z"/>
					<path id="Path_7619" class="st7" d="M7.3,0C3.3,0,0,3.3,0,7.3h14.6C14.6,3.3,11.4,0,7.3,0z"/>
				</g>
				<path id="Path_7620" class="st7" d="M124.7,314.3h-0.5v-0.5c0-0.1-0.1-0.3-0.3-0.3l0,0l0,0c-0.1,0-0.3,0.1-0.3,0.3l0,0v0.5h-0.5
					c-0.1,0-0.3,0.1-0.3,0.2c0,0.1,0.1,0.3,0.2,0.3c0,0,0,0,0,0h0.5v0.5c0,0.1,0.1,0.3,0.3,0.3l0,0l0,0c0.1,0,0.3-0.1,0.3-0.3l0,0
					v-0.5h0.5c0.1,0,0.3-0.1,0.3-0.2C125,314.5,124.9,314.4,124.7,314.3C124.7,314.3,124.7,314.3,124.7,314.3z"/>
				<path id="Path_7621" class="st7" d="M137.5,320.6H137v-0.5c0-0.1-0.1-0.3-0.3-0.3l0,0l0,0c-0.1,0-0.3,0.1-0.3,0.3l0,0v0.5H136
					c-0.1,0-0.2,0.1-0.2,0.3c0,0.1,0.1,0.2,0.2,0.2h0.5v0.5c0,0.1,0.1,0.3,0.3,0.3l0,0l0,0c0.1,0,0.3-0.1,0.3-0.3l0,0v-0.5h0.5
					c0.1,0,0.2-0.1,0.2-0.3C137.7,320.7,137.6,320.6,137.5,320.6z"/>
				<path id="Path_7622" class="st7" d="M168.2,297.9h-0.5v-0.5c0-0.1-0.1-0.3-0.3-0.3l0,0l0,0c-0.1,0-0.3,0.1-0.3,0.3l0,0v0.5h-0.5
					c-0.1,0-0.2,0.1-0.2,0.3c0,0.1,0.1,0.2,0.2,0.2h0.5v0.5c0,0.1,0.1,0.3,0.3,0.3l0,0l0,0c0.1,0,0.3-0.1,0.3-0.3l0,0v-0.5h0.5
					c0.1,0,0.2-0.1,0.2-0.3C168.4,298,168.3,297.9,168.2,297.9z"/>
				<path id="Path_7623" class="st7" d="M180.3,300.6h-0.5v-0.5c0-0.1-0.1-0.3-0.3-0.3l0,0l0,0c-0.1,0-0.3,0.1-0.3,0.3l0,0v0.5h-0.5
					c-0.1,0-0.3,0.1-0.3,0.2c0,0.1,0.1,0.3,0.2,0.3c0,0,0,0,0,0h0.5v0.5c0,0.1,0.1,0.3,0.3,0.3l0,0l0,0c0.1,0,0.3-0.1,0.3-0.3l0,0
					v-0.5h0.5c0.1,0,0.3-0.1,0.3-0.2C180.6,300.7,180.5,300.6,180.3,300.6C180.3,300.6,180.3,300.6,180.3,300.6z"/>
				<path id="Path_7624" class="st7" d="M219.3,296.8h-0.5v-0.5c0-0.1-0.1-0.3-0.3-0.3l0,0l0,0c-0.1,0-0.3,0.1-0.3,0.3l0,0v0.5h-0.5
					c-0.1,0-0.3,0.1-0.3,0.2c0,0.1,0.1,0.3,0.2,0.3c0,0,0,0,0,0h0.5v0.5c0,0.1,0.1,0.3,0.3,0.3l0,0l0,0c0.1,0,0.3-0.1,0.3-0.3l0,0
					v-0.5h0.5c0.1,0,0.3-0.1,0.3-0.2C219.6,297,219.5,296.8,219.3,296.8C219.3,296.8,219.3,296.8,219.3,296.8z"/>
				<path id="Path_7625" class="st7" d="M232.1,292h-0.5v-0.5c0-0.1-0.1-0.3-0.3-0.3l0,0c-0.1,0-0.3,0.1-0.3,0.3v0.5h-0.5
					c-0.1,0-0.3,0.1-0.3,0.2c0,0.1,0.1,0.3,0.2,0.3c0,0,0,0,0,0h0.5v0.5c0,0.1,0.1,0.3,0.3,0.3l0,0c0.1,0,0.3-0.1,0.3-0.3v-0.5h0.5
					c0.1,0,0.3-0.1,0.3-0.2C232.4,292.2,232.3,292.1,232.1,292C232.2,292,232.1,292,232.1,292z"/>
				<path id="Path_7626" class="st7" d="M210.7,281.7h-0.5v-0.5c0-0.1-0.1-0.3-0.3-0.3l0,0l0,0c-0.1,0-0.3,0.1-0.3,0.3l0,0v0.5h-0.5
					c-0.1,0-0.2,0.1-0.2,0.3c0,0.1,0.1,0.2,0.2,0.2h0.5v0.5c0,0.1,0.1,0.3,0.3,0.3l0,0l0,0c0.1,0,0.3-0.1,0.3-0.3l0,0v-0.5h0.5
					c0.1,0,0.2-0.1,0.2-0.3C210.9,281.8,210.8,281.7,210.7,281.7z"/>
				<path id="Path_7627" class="st7" d="M222.2,287.4h-0.5v-0.5c0-0.1-0.1-0.3-0.3-0.3l0,0l0,0c-0.1,0-0.3,0.1-0.3,0.3l0,0v0.5h-0.5
					c-0.1,0-0.3,0.1-0.3,0.2c0,0.1,0.1,0.3,0.2,0.3c0,0,0,0,0,0h0.5v0.5c0,0.1,0.1,0.3,0.3,0.3l0,0l0,0c0.1,0,0.3-0.1,0.3-0.3l0,0
					v-0.5h0.5c0.1,0,0.3-0.1,0.3-0.2C222.5,287.5,222.4,287.4,222.2,287.4C222.2,287.4,222.2,287.4,222.2,287.4z"/>
				<path id="Path_7628" class="st7" d="M247.8,286.3h-0.5v-0.5c0-0.1-0.1-0.3-0.3-0.3l0,0c-0.1,0-0.3,0.1-0.3,0.3v0.5h-0.5
					c-0.1,0-0.3,0.1-0.3,0.2c0,0.1,0.1,0.3,0.2,0.3c0,0,0,0,0,0h0.5v0.5c0,0.1,0.1,0.3,0.3,0.3l0,0c0.1,0,0.3-0.1,0.3-0.3v-0.5h0.5
					c0.1,0,0.3-0.1,0.3-0.2C248.1,286.5,248,286.3,247.8,286.3C247.8,286.3,247.8,286.3,247.8,286.3L247.8,286.3z"/>
				<path id="Path_7629" class="st7" d="M217.2,322.8h-0.5v-0.5c0-0.1-0.1-0.3-0.3-0.3l0,0l0,0c-0.1,0-0.3,0.1-0.3,0.3l0,0v0.5h-0.5
					c-0.1,0-0.2,0.1-0.2,0.3c0,0.1,0.1,0.2,0.2,0.2h0.5v0.5c0,0.1,0.1,0.3,0.3,0.3l0,0l0,0c0.1,0,0.3-0.1,0.3-0.3l0,0v-0.5h0.5
					c0.1,0,0.2-0.1,0.2-0.3C217.4,322.9,217.3,322.9,217.2,322.8z"/>
				<path id="Path_7630" class="st7" d="M229.2,319.6h-0.5v-0.5c0-0.1-0.1-0.3-0.3-0.3l0,0c-0.1,0-0.3,0.1-0.3,0.3v0.5h-0.5
					c-0.1,0-0.3,0.1-0.3,0.2c0,0.1,0.1,0.3,0.2,0.3c0,0,0,0,0,0h0.5v0.5c0,0.1,0.1,0.3,0.3,0.3l0,0c0.1,0,0.3-0.1,0.3-0.3v-0.5h0.5
					c0.1,0,0.3-0.1,0.3-0.2C229.5,319.7,229.4,319.6,229.2,319.6C229.3,319.6,229.3,319.6,229.2,319.6z"/>
				<path id="Path_7631" class="st7" d="M202.5,340.8H202v-0.5c0-0.1-0.1-0.3-0.3-0.3l0,0l0,0c-0.1,0-0.3,0.1-0.3,0.3l0,0v0.5H201
					c-0.1,0-0.3,0.1-0.3,0.2c0,0.1,0.1,0.3,0.2,0.3c0,0,0,0,0,0h0.5v0.5c0,0.1,0.1,0.3,0.3,0.3l0,0l0,0c0.1,0,0.3-0.1,0.3-0.3l0,0
					v-0.5h0.5c0.1,0,0.3-0.1,0.3-0.2C202.8,340.9,202.7,340.8,202.5,340.8C202.6,340.8,202.6,340.8,202.5,340.8z"/>
				<path id="Path_7632" class="st7" d="M237.1,332.9h-0.5v-0.5c0-0.1-0.1-0.3-0.3-0.3l0,0c-0.1,0-0.3,0.1-0.3,0.3v0.5h-0.5
					c-0.1,0-0.2,0.1-0.2,0.3c0,0.1,0.1,0.2,0.2,0.2h0.5v0.5c0,0.1,0.1,0.3,0.3,0.3l0,0c0.1,0,0.3-0.1,0.3-0.3v-0.5h0.5
					c0.1,0,0.2-0.1,0.2-0.3C237.3,333,237.2,332.9,237.1,332.9z"/>
				<path id="Path_7633" class="st7" d="M241.1,312.9h-0.5v-0.5c0-0.1-0.1-0.3-0.3-0.3l0,0c-0.1,0-0.3,0.1-0.3,0.3v0.5h-0.5
					c-0.1,0-0.2,0.1-0.2,0.3c0,0.1,0.1,0.2,0.2,0.2h0.5v0.5c0,0.1,0.1,0.3,0.3,0.3l0,0c0.1,0,0.3-0.1,0.3-0.3v-0.5h0.5
					c0.1,0,0.2-0.1,0.2-0.3C241.3,313,241.2,312.9,241.1,312.9z"/>
				<path id="Path_7634" class="st7" d="M117.9,301.6h-0.5v-0.5c0-0.1-0.1-0.3-0.3-0.3h0l0,0c-0.1,0-0.3,0.1-0.3,0.3l0,0v0.5h-0.5
					c-0.1,0-0.3,0.1-0.3,0.2c0,0.1,0.1,0.3,0.2,0.3c0,0,0,0,0,0h0.5v0.5c0,0.1,0.1,0.3,0.3,0.3h0l0,0c0.1,0,0.3-0.1,0.3-0.3l0,0
					v-0.5h0.5c0.1,0,0.3-0.1,0.3-0.2C118.2,301.8,118.1,301.6,117.9,301.6C117.9,301.6,117.9,301.6,117.9,301.6z"/>
				<path id="Path_7635" class="st7" d="M136.5,279.6H136v-0.5c0-0.1-0.1-0.3-0.3-0.3l0,0l0,0c-0.1,0-0.3,0.1-0.3,0.3l0,0v0.5h-0.5
					c-0.1,0-0.2,0.1-0.2,0.3c0,0.1,0.1,0.2,0.2,0.2h0.5v0.5c0,0.1,0.1,0.3,0.3,0.3l0,0l0,0c0.1,0,0.3-0.1,0.3-0.3l0,0v-0.5h0.5
					c0.1,0,0.2-0.1,0.2-0.3C136.7,279.7,136.6,279.6,136.5,279.6z"/>
				<path id="Path_7636" class="st7" d="M101.7,295.1h-0.5v-0.5c0-0.1-0.1-0.3-0.3-0.3h0l0,0c-0.1,0-0.3,0.1-0.3,0.3l0,0v0.5h-0.5
					c-0.1,0-0.3,0.1-0.3,0.2c0,0.1,0.1,0.3,0.2,0.3c0,0,0,0,0,0h0.5v0.5c0,0.1,0.1,0.3,0.3,0.3h0l0,0c0.1,0,0.3-0.1,0.3-0.3l0,0
					v-0.5h0.5c0.1,0,0.3-0.1,0.3-0.2C102,295.3,101.9,295.1,101.7,295.1C101.7,295.1,101.7,295.1,101.7,295.1z"/>
				<path id="Path_7637" class="st7" d="M110.8,319.6h-0.5V319c0-0.1-0.1-0.3-0.3-0.3h0l0,0c-0.1,0-0.3,0.1-0.3,0.3l0,0v0.5h-0.5
					c-0.1,0-0.2,0.1-0.2,0.3c0,0.1,0.1,0.2,0.2,0.2h0.5v0.5c0,0.1,0.1,0.3,0.3,0.3h0l0,0c0.1,0,0.3-0.1,0.3-0.3l0,0v-0.5h0.5
					c0.1,0,0.2-0.1,0.2-0.3C111,319.7,110.9,319.6,110.8,319.6z"/>
				<path id="Path_7638" class="st7" d="M96.5,324.3H96v-0.5c0-0.1-0.1-0.3-0.3-0.3h0l0,0c-0.1,0-0.3,0.1-0.3,0.3l0,0v0.5h-0.5
					c-0.1,0-0.3,0.1-0.3,0.2c0,0.1,0.1,0.3,0.2,0.3c0,0,0,0,0,0h0.5v0.5c0,0.1,0.1,0.3,0.3,0.3h0l0,0c0.1,0,0.3-0.1,0.3-0.3l0,0
					v-0.5h0.5c0.1,0,0.3-0.1,0.3-0.2C96.8,324.5,96.7,324.3,96.5,324.3C96.5,324.3,96.5,324.3,96.5,324.3z"/>
				<path id="Path_7639" class="st7" d="M133.2,336.7h-0.5v-0.5c0-0.1-0.1-0.3-0.3-0.3l0,0l0,0c-0.1,0-0.3,0.1-0.3,0.3l0,0v0.5h-0.5
					c-0.1,0-0.3,0.1-0.3,0.2c0,0.1,0.1,0.3,0.2,0.3c0,0,0,0,0,0h0.5v0.5c0,0.1,0.1,0.3,0.3,0.3l0,0l0,0c0.1,0,0.3-0.1,0.3-0.3l0,0
					v-0.5h0.5c0.1,0,0.3-0.1,0.3-0.2C133.5,336.9,133.4,336.7,133.2,336.7C133.2,336.7,133.2,336.7,133.2,336.7z"/>
			</g>
		</g>
	</g>
	<g id="Group_12643" transform="translate(-512.007 20890.422)">
		<path id="Path_7811" class="st11" d="M-52.7,181.5l-0.3,3.8c0,0.2-0.1,0.3-0.2,0.5c-0.1,0.1-0.3,0.2-0.4,0.2
			c-0.2,0-0.3-0.1-0.4-0.2c-0.1-0.1-0.2-0.3-0.2-0.5l-0.4-3.8c0-0.2,0-0.3,0-0.4c0-0.3,0.1-0.6,0.3-0.8c0.2-0.2,0.4-0.3,0.7-0.3
			c0.3,0,0.5,0.1,0.7,0.3c0.2,0.2,0.3,0.5,0.3,0.7C-52.7,181.2-52.7,181.4-52.7,181.5z M-52.9,187.7c0,0.2-0.1,0.3-0.2,0.5
			c-0.2,0.1-0.4,0.2-0.6,0.2c-0.2,0-0.4-0.1-0.6-0.2c-0.1-0.1-0.2-0.3-0.2-0.5c0-0.2,0.1-0.3,0.2-0.4c0.2-0.1,0.4-0.2,0.6-0.2
			c0.2,0,0.4,0.1,0.6,0.2C-53,187.4-52.9,187.6-52.9,187.7L-52.9,187.7z"/>
	</g>
</g>
</svg>
