<?xml version="1.0" encoding="utf-8"?>
<!-- Generator: Adobe Illustrator 24.0.2, SVG Export Plug-In . SVG Version: 6.00 Build 0)  -->
<svg version="1.1" id="Layer_1" xmlns="http://www.w3.org/2000/svg" xmlns:xlink="http://www.w3.org/1999/xlink" x="0px" y="0px"
	 viewBox="0 0 204.5 134.9" style="enable-background:new 0 0 204.5 134.9;" xml:space="preserve">
<style type="text/css">
	.st0{fill:#4C4335;}
	.st1{fill:#9EAF3A;}
	.st2{fill:#BCC943;}
	.st3{fill:#7B8426;}
	.st4{fill:#F9E4C7;}
	.st5{fill:#FFF2E1;}
	.st6{fill:#D8C571;}
	.st7{opacity:0.2;enable-background:new    ;}
	.st8{fill:#144798;}
	.st9{fill:#E01E1E;}
</style>
<g id="noitems" transform="translate(-7766 -12263.945)">
	<g id="noitems-2" transform="translate(6673 -8687.354)">
		<g id="Group_12628" transform="translate(2010 124.088)">
			<g id="Group_12539" transform="translate(-1470.5 20345.492)">
				<g id="Group_12519" transform="translate(740.109 552.508)">
					<g id="Group_12518">
						<rect id="Rectangle_2448" x="7" y="4.7" class="st0" width="0.4" height="55"/>
						<path id="Path_7531" class="st1" d="M7,14.8c-1.8-0.3-6.7-4.9-7-6.5S5.4-0.2,6.9,0s6.6,6.1,6.7,7.6S9.1,15.2,7,14.8z"/>
						<path id="Path_7532" class="st2" d="M0.9,10c2.8-3,6.4-5,10.5-5.9c-1.6-2-3.7-4-4.5-4.1C5.4-0.2-0.2,6.7,0,8.3
							C0.2,8.9,0.5,9.5,0.9,10L0.9,10z"/>
						<path id="Path_7533" class="st3" d="M10,10.4c-2.3,1-4.7,1.6-7.2,1.6C4.3,13.4,6,14.7,7,14.8c1.8,0.3,5.4-4,6.4-6.3
							C12.3,9.3,11.2,9.9,10,10.4L10,10.4z"/>
						<path id="Path_7534" class="st4" d="M7,13.9c-1.6-0.3-5.7-4.2-5.9-5.5s4.6-7.2,5.8-7.1s5.6,5.2,5.7,6.5S8.8,14.3,7,13.9z"/>
						<path id="Path_7535" class="st5" d="M6.9,1.3c-1.2-0.1-6,5.7-5.8,7.1C1.3,9,1.6,9.5,2.1,10c3.6,1.7,7.9,0.9,10.5-2
							c0-0.1,0-0.1,0-0.2C12.6,6.5,8.2,1.5,6.9,1.3z"/>
					</g>
				</g>
				<rect id="Rectangle_2449" x="553.5" y="611.9" class="st6" width="204.5" height="4.7"/>
			</g>
		</g>
		<ellipse id="Ellipse_12785" class="st7" cx="1195.5" cy="21059.9" rx="44.5" ry="5.5"/>
		<g id="Group_27292" transform="matrix(0.875, -0.485, 0.485, 0.875, -7144.193, 21724.787)">
			<path id="Path_54866" class="st8" d="M7668.9,3427.6c-4.9-1.9-5.6-4.3-5.6-6.1v-12.8c0-13.7-7.1-25.7-18.3-30.9
				c-1.6-5.9-6.5-10-12.3-10s-10.7,4.1-12.3,10c-11.2,5.2-18.3,17.1-18.3,30.9v12.8c0,1.8-0.6,4.2-5.6,6.1c-1.5,0.7-2.4,2.3-2.1,4
				c0.2,1.6,1.6,2.9,3.2,2.9h70.1c1.7,0,3-1.3,3.2-2.9C7671.3,3429.9,7670.4,3428.2,7668.9,3427.6"/>
			<path id="Path_54867" class="st8" d="M7645.3,3440.5h-25.2c-0.6,0-1,0.5-0.9,1.1c0,0.1,0,0.1,0,0.2c1.5,6.9,6.7,10.6,13.5,10.6
				c6.7,0,11.9-3.7,13.5-10.6c0.1-0.5-0.2-1.1-0.7-1.2C7645.5,3440.5,7645.4,3440.5,7645.3,3440.5"/>
		</g>
	</g>
	<g id="Group_12648" transform="translate(8012.993 12158.422)">
		<path id="Path_7811" class="st9" d="M-52.7,181.5l-0.3,3.8c0,0.2-0.1,0.3-0.2,0.5c-0.1,0.1-0.3,0.2-0.4,0.2
			c-0.2,0-0.3-0.1-0.4-0.2c-0.1-0.1-0.2-0.3-0.2-0.5l-0.4-3.8c0-0.2,0-0.3,0-0.4c0-0.3,0.1-0.6,0.3-0.8c0.2-0.2,0.4-0.3,0.7-0.3
			c0.3,0,0.5,0.1,0.7,0.3c0.2,0.2,0.3,0.5,0.3,0.7C-52.7,181.2-52.7,181.4-52.7,181.5z M-52.9,187.7c0,0.2-0.1,0.3-0.2,0.5
			c-0.2,0.1-0.4,0.2-0.6,0.2c-0.2,0-0.4-0.1-0.6-0.2c-0.1-0.1-0.2-0.3-0.2-0.5c0-0.2,0.1-0.3,0.2-0.4c0.2-0.1,0.4-0.2,0.6-0.2
			c0.2,0,0.4,0.1,0.6,0.2C-53,187.4-52.9,187.6-52.9,187.7L-52.9,187.7z"/>
	</g>
</g>
</svg>
