<?xml version="1.0" encoding="utf-8"?>
<!-- Generator: Adobe Illustrator 24.0.2, SVG Export Plug-In . SVG Version: 6.00 Build 0)  -->
<svg version="1.1" id="Layer_1" xmlns="http://www.w3.org/2000/svg" xmlns:xlink="http://www.w3.org/1999/xlink" x="0px" y="0px"
	 viewBox="0 0 204.5 122.1" style="enable-background:new 0 0 204.5 122.1;" xml:space="preserve">
<style type="text/css">
	.st0{fill:#4C4335;}
	.st1{fill:#9EAF3A;}
	.st2{fill:#BCC943;}
	.st3{fill:#7B8426;}
	.st4{fill:#F9E4C7;}
	.st5{fill:#FFF2E1;}
	.st6{fill:#D8C571;}
	.st7{fill:#E01E1E;}
	.st8{fill:#324F93;}
	.st9{fill:#144798;}
	.st10{fill:#1A3E70;}
	.st11{fill:#536FAC;}
	.st12{fill:#607DAD;}
	.st13{fill:#7399BE;}
	.st14{fill:#3D5F9C;}
	.st15{fill:#D4CECE;}
	.st16{fill:#E01A2C;}
</style>
<g id="Group_27293" transform="translate(-85 -233)">
	<g id="noaddress" transform="translate(844 -20775.996)">
		<g id="Group_12645">
			<g id="Group_12541" transform="translate(20 57)">
				<g id="Group_12539" transform="translate(-1332.5 20457.492)">
					<g id="Group_12519" transform="translate(740.109 552.508)">
						<g id="Group_12518">
							<rect id="Rectangle_2448" x="7" y="4.7" class="st0" width="0.4" height="55"/>
							<path id="Path_7531" class="st1" d="M7,14.8c-1.8-0.3-6.7-4.9-7-6.5S5.4-0.2,6.9,0s6.6,6.1,6.7,7.6S9.1,15.2,7,14.8z"/>
							<path id="Path_7532" class="st2" d="M0.9,10c2.8-3,6.4-5,10.5-5.9c-1.6-2-3.7-4-4.5-4.1C5.4-0.2-0.2,6.7,0,8.3
								C0.2,8.9,0.5,9.5,0.9,10L0.9,10z"/>
							<path id="Path_7533" class="st3" d="M10,10.4c-2.3,1-4.7,1.6-7.2,1.6C4.3,13.4,6,14.7,7,14.8c1.8,0.3,5.4-4,6.4-6.3
								C12.3,9.3,11.2,9.9,10,10.4L10,10.4z"/>
							<path id="Path_7534" class="st4" d="M7,13.9c-1.6-0.3-5.7-4.2-5.9-5.5s4.6-7.2,5.8-7.1s5.6,5.2,5.7,6.5S8.8,14.3,7,13.9z"/>
							<path id="Path_7535" class="st5" d="M6.9,1.3c-1.2-0.1-6,5.7-5.8,7.1C1.3,9,1.6,9.5,2.1,10c3.6,1.7,7.9,0.9,10.5-2
								c0-0.1,0-0.1,0-0.2C12.6,6.5,8.2,1.5,6.9,1.3z"/>
						</g>
					</g>
					<rect id="Rectangle_2449" x="553.5" y="611.9" class="st6" width="204.5" height="4.7"/>
				</g>
			</g>
		</g>
		<g id="Group_12643" transform="translate(-512.007 20890.422)">
			<path id="Path_7811" class="st7" d="M-52.7,181.5l-0.3,3.8c0,0.2-0.1,0.3-0.2,0.5c-0.1,0.1-0.3,0.2-0.4,0.2
				c-0.2,0-0.3-0.1-0.4-0.2c-0.1-0.1-0.2-0.3-0.2-0.5l-0.4-3.8c0-0.2,0-0.3,0-0.4c0-0.3,0.1-0.6,0.3-0.8c0.2-0.2,0.4-0.3,0.7-0.3
				c0.3,0,0.5,0.1,0.7,0.3c0.2,0.2,0.3,0.5,0.3,0.7C-52.7,181.2-52.7,181.4-52.7,181.5z M-52.9,187.7c0,0.2-0.1,0.3-0.2,0.5
				c-0.2,0.1-0.4,0.2-0.6,0.2c-0.2,0-0.4-0.1-0.6-0.2c-0.1-0.1-0.2-0.3-0.2-0.5c0-0.2,0.1-0.3,0.2-0.4c0.2-0.1,0.4-0.2,0.6-0.2
				c0.2,0,0.4,0.1,0.6,0.2C-53,187.4-52.9,187.6-52.9,187.7L-52.9,187.7z"/>
		</g>
	</g>
	<g id="Bucket-icon400X360-01" transform="translate(114.46 210.792)">
		<g id="Path_54996">
			<path class="st8" d="M113.7,102.4l-51.4,19l-38-32.8l-1.1-11.7l-0.8-0.8l-1.2-13.2l-2.7-16.6l-2.4-0.4l-0.2-6.2l45.1-17
				c0,0,3.1-0.5,3.1,1.7l-0.1,2.8l1.6-0.1l5.8,1.4l0.4-0.7l4.9-1.4l8.3,1.8l1.2,2.9l8,1.6l0.7,0.4l0.6,1.4l1.2,0.4l0.9-0.3l12.2,2.9
				l3.9-0.4l6.4-0.6l4.3,0.9l0.5,1.5l4.7-0.4l0.8,1l-0.5,7.6h-1.5L127,58.5h-5L113.7,102.4z"/>
		</g>
		<g id="Path_54997">
			<path class="st9" d="M129.5,38.5l-4.7,0.4l-0.5-1.5l-4.3-0.9l-6.4,0.6l-3.9,0.4l-12.2-2.9l-0.9,0.3l-1.2-0.4l-0.6-1.4L94,32.7
				l-8-1.6l-1.2-2.9l-8.3-1.8l-4.9,1.4l-0.4,0.7l-5.8-1.4L64,27.2l0.1-2.8c0-0.7-0.5-1.4-1.2-1.6c-1.2,8-2.3,14.9-2.3,14.9
				c0,0.5,1.6,83.7,1.6,83.7l51.4-19l8.3-44h5l1.3-11.3h1.5l0.5-7.6L129.5,38.5z"/>
		</g>
		<g id="Path_54998">
			<path class="st10" d="M66.4,56.7l-5.8-0.2l-0.1-26.3l7.9,0.3L66.4,56.7z"/>
		</g>
		<g id="Path_54999">
			<path class="st11" d="M65.9,30L66,56.8l23.5,0.6l3.1,0.1l1.4,0l0.9-19.9l-3.3-0.9L65.9,30z"/>
		</g>
		<g id="Group_23224" transform="translate(21.484 62.471)">
			<g id="Path_55000">
				<path class="st12" d="M39.9,11.5c0,0-0.1,0-0.1,0L0.3,0.8C0.1,0.7,0,0.5,0,0.3C0.1,0.1,0.3,0,0.5,0l0,0L40,10.7
					c0.2,0,0.4,0.3,0.3,0.5C40.3,11.4,40.1,11.5,39.9,11.5L39.9,11.5z"/>
			</g>
		</g>
		<g id="Group_23225" transform="translate(23.011 76.589)">
			<g id="Path_55001">
				<path class="st12" d="M38.7,23.3c-0.1,0-0.1,0-0.2-0.1L0.2,0.8C0,0.6-0.1,0.4,0.1,0.2C0.2,0,0.4-0.1,0.6,0.1l0,0l38.3,22.5
					c0.2,0.1,0.3,0.4,0.1,0.6C39,23.2,38.9,23.3,38.7,23.3L38.7,23.3z"/>
			</g>
		</g>
		<g id="Group_23226" transform="translate(60.08 34.822)">
			<g id="Path_55002">
				<path class="st12" d="M1.8,86.3C1.7,82.8,0,0.5,0,0h0.8c0,0.6,1.8,85.5,1.8,86.3L1.8,86.3z"/>
			</g>
		</g>
		<g id="Group_23227" transform="translate(94.155 45.016)">
			<g id="Path_55003">
				<path class="st13" d="M27.4,13.8L27.4,13.8L17,13.3l1-11L2.6,0.8L0.4,0.9h0C0.2,0.9,0,0.7,0,0.5s0.2-0.4,0.4-0.4l0,0L2.6,0h0
					l16.2,1.6l-1,11l9.6,0.4c0.2,0,0.4,0.2,0.4,0.4C27.8,13.6,27.6,13.8,27.4,13.8L27.4,13.8z"/>
			</g>
		</g>
		<g id="Line_1">
			<path class="st13" d="M96.7,46.3c-0.1,0-0.2,0-0.3,0c-0.7-0.2-1.1-0.9-0.9-1.6l2.7-9.7c0.2-0.7,0.9-1.1,1.6-0.9
				c0.7,0.2,1.1,0.9,0.9,1.6l-2.7,9.7C97.8,45.9,97.3,46.3,96.7,46.3z"/>
		</g>
		<g id="Group_23228" transform="translate(15.952 22.617)">
			<g id="Path_55004">
				<path class="st14" d="M50,13l0-8.5l-0.3-0.1l-1.6,0.1l0.1-2.8c-0.1-2.2-3.1-1.7-3.1-1.7L0,17.1l0.2,6.2l44.2-11.1L50,13z"/>
			</g>
		</g>
		<g id="Path_55005">
			<path class="st10" d="M94,57.5l-2.6,0l0.9-20.5l2.6,0.7L94,57.5z"/>
		</g>
		<g id="Path_55006">
			<path class="st13" d="M129.7,47.3l-2.6,0l0.6-8.4l2.5,0.2L129.7,47.3z"/>
		</g>
		<g id="Path_55007">
			<path class="st10" d="M126.8,58.7l-2.6,0l2-20l2.5,0.2L126.8,58.7z"/>
		</g>
		<g id="Path_55008">
			<path class="st10" d="M111.2,58.3l-3.3-1.4l0.9-10l3.3,0.3L111.2,58.3z"/>
		</g>
		<g id="Group_23229" transform="translate(60.754 27.128)">
			<g id="Path_55009">
				<path class="st13" d="M4.2,29.9L4.2,29.9l-3.8-0.1c-0.2,0-0.4-0.2-0.4-0.4c0,0,0,0,0,0C0,29.2,0.2,29,0.4,29l3.7,0.1
					c0.6,0,1.1-0.5,1.1-1.1c0,0,0,0,0-0.1c0-1.1-0.4-27.1-0.4-27.6C4.9,0.2,5,0,5.3,0s0.4,0.2,0.4,0.4c0,0,0,0,0,0
					C5.7,0.8,5.9,18,6.1,28C6.1,29.1,5.2,29.9,4.2,29.9C4.2,29.9,4.2,29.9,4.2,29.9L4.2,29.9z"/>
			</g>
		</g>
		<g id="Group_23230" transform="translate(65.642 37.234)">
			<g id="Path_55010">
				<path class="st13" d="M27.5,20.8L27.5,20.8L0.4,19.9c-0.2,0-0.4-0.2-0.4-0.4c0,0,0,0,0,0c0-0.2,0.2-0.4,0.4-0.4c0,0,0,0,0,0
					L27.5,20h0c0.4,0,0.7-0.3,0.7-0.7l0.9-18.9c0-0.2,0.2-0.4,0.4-0.4s0.4,0.2,0.4,0.4L29,19.3C29,20.2,28.3,20.8,27.5,20.8z"/>
			</g>
		</g>
		<g id="Path_55011">
			<path class="st13" d="M116.3,58l-4.7-0.2l0.4-1.9l4.5,0.2L116.3,58z"/>
		</g>
		<g id="Path_55012">
			<path class="st13" d="M126.9,58.2h-5.7l0.4-2h5.7L126.9,58.2z"/>
		</g>
		<g id="Path_55013">
			<path class="st10" d="M120.4,57.9l0.9,0l0.4-1.8l-0.7,0.1L120.4,57.9z"/>
		</g>
		<g id="Group_23231" transform="translate(109.355 37.106)">
			<g id="Path_55014">
				<path class="st13" d="M14.7,4.8L0.1,4.2L0,0.4C0,0.2,0.2,0,0.4,0c0.2,0,0.4,0.2,0.4,0.4l0.1,3L14.2,4l0.9-2.4
					c0.1-0.2,0.3-0.3,0.5-0.2s0.3,0.3,0.2,0.5L14.7,4.8z"/>
			</g>
		</g>
		<g id="Path_55015">
			<path class="st9" d="M129.7,42l-5.6-0.1l1-2.8l5.1-0.4L129.7,42z"/>
		</g>
		<g id="Line_2">
			<path class="st13" d="M129.9,43.1C129.9,43.1,129.9,43.1,129.9,43.1l-5.8-0.2c-0.7,0-1.3-0.6-1.2-1.4s0.6-1.3,1.4-1.2l5.8,0.2
				c0.7,0,1.3,0.6,1.2,1.4C131.2,42.5,130.6,43.1,129.9,43.1z"/>
		</g>
		<g id="Path_55016">
			<path class="st13" d="M76.6,26.8l-1.1,2.6l-4.3-0.5l0.5-0.8L76.6,26.8z"/>
		</g>
		<g id="Path_55017">
			<path class="st13" d="M119.8,36.8l-0.7,1.9l-9.1-0.8l4.5-0.5L119.8,36.8z"/>
		</g>
		<g id="Path_55018">
			<path class="st10" d="M99,35.1l-2.6,10.2l-1.6-0.2l0.8-10.9L99,35.1z"/>
		</g>
		<g id="Group_23233" transform="translate(15.54 22.208)">
			<g id="Group_23232">
				<g id="Path_55019">
					<path class="st12" d="M46.7,99.4L8.4,66.6L7.3,54.9l-0.8-0.8L5.3,40.7L2.7,24.4L0.2,24L0,17.2L45.4,0.1c0.1,0,2.5-0.4,3.3,1
						C48.9,1.4,49,1.8,49,2.2v0l-0.1,2.4l1.2-0.1l5.5,1.4l0.3-0.5l0.1,0l0.2-0.1l5-1.5l8.6,1.9l1.2,2.9l7.9,1.6l0.9,0.6l0.6,1.4
						l0.9,0.3L82,12l12.3,2.9l3.8-0.4l6.5-0.6l4.6,1l0.5,1.5l4.6-0.4l1,1.3l-0.6,8.2h-0.1v0h-1.5l-1.3,11.3h-0.1v0h-5l-8.2,43.8
						l-0.3,0.1L46.7,99.4z M9.2,66.2l37.7,32.6L97.7,80l0.1,0l8.3-44.1h4.9v0h0.1l1.3-11.3h1.4v0h0.1l0.5-7.1l-0.6-0.7l-4.8,0.4
						l-0.6-1.6l-4-0.8l-6.3,0.6l-3.9,0.5l-0.1,0L82,12.8l-0.9,0.3l-1.5-0.4L79,11.2l-0.5-0.3l-8.1-1.6l-1.2-2.9l-8-1.7L56.5,6
						l-0.4,0.8l-6-1.5l-2,0.1l0.1-3.2c0-0.2-0.1-0.5-0.2-0.7c-0.5-0.8-1.9-0.7-2.5-0.7L0.8,17.7L1,23.3l2.4,0.4l2.8,17l1.2,13.1
						l0.8,0.8l0,0.1L9.2,66.2z"/>
				</g>
			</g>
		</g>
		<g id="Group_23234" transform="translate(98.65 36.947)">
			<g id="Path_55020">
				<path class="st13" d="M11.1,3.2C11,3.2,11,3.2,11.1,3.2L0.3,0.8C0.1,0.8,0,0.5,0,0.3C0.1,0.1,0.3,0,0.5,0l10.7,2.4
					c0.2,0.1,0.4,0.3,0.3,0.5C11.4,3.1,11.3,3.2,11.1,3.2L11.1,3.2z"/>
			</g>
		</g>
		<g id="Path_55021">
			<path class="st10" d="M32.5,35.3c0,0.7,0,1.3,0,2l9-2.7c0-0.8,0-1.6,0-2.3L32.5,35.3z"/>
		</g>
		<g id="Path_55022">
			<path class="st10" d="M24.4,39.8l3.6-1.1c0-0.6,0-1.2-0.1-1.8l-3.6,1.3C24.4,38.7,24.4,39.2,24.4,39.8z"/>
		</g>
		<g id="Path_55023">
			<path class="st10" d="M21.1,39.2l-3.4,1.2v1.3l3.6-1.1C21.2,40.2,21.1,39.7,21.1,39.2z"/>
		</g>
		<g id="Path_55024">
			<path class="st10" d="M48,29.9c0,0.9,0,1.8,0,2.7l10.4-3.1v-3.2L48,29.9z"/>
		</g>
		<g id="Group_23239" transform="translate(31.433 68.851)">
			<g id="Group_23235" transform="translate(4.71 3.946)">
				<g id="Path_55025">
					<path class="st15" d="M0.9,0.4l0.6,4.3h0L2.1,1l0.9,0.4l0,6L2.3,7.1l0-4.2h0L1.7,6.8L1.2,6.6L0.6,2.1h0l0,4.2L0,6l0-6L0.9,0.4z
						"/>
				</g>
				<g id="Path_55026">
					<path class="st15" d="M4.4,5.2c0-0.2,0-0.5-0.1-0.7c0-0.1-0.1-0.3-0.3-0.3C4,4.1,3.9,4.1,3.8,4.2C3.8,4.3,3.7,4.4,3.7,4.5
						L3.2,4.3c0-0.3,0.1-0.6,0.3-0.9c0.2-0.2,0.5-0.2,0.7,0c0.3,0.2,0.5,0.4,0.7,0.7C4.9,4.6,5,5,5,5.5l0,2.9L4.5,8.1l0-0.6h0
						c0,0.2-0.1,0.3-0.2,0.4C4.1,8,3.9,8,3.8,8C3.7,7.9,3.5,7.8,3.4,7.6C3.3,7.4,3.3,7.2,3.2,7C3.1,6.7,3.1,6.5,3.1,6.2
						c0-0.3,0.1-0.7,0.3-1c0.2-0.2,0.4-0.2,0.7,0l0.3,0.1V5.2z M4.2,6c-0.1-0.1-0.3-0.1-0.4,0C3.7,6,3.7,6.1,3.7,6.4
						c0,0.2,0,0.3,0.1,0.5C3.8,7,3.9,7.1,4,7.1c0.1,0,0.2,0,0.2,0C4.3,7.1,4.4,7,4.4,6.9c0-0.2,0.1-0.3,0.1-0.5V6.1L4.2,6z"/>
				</g>
				<g id="Path_55027">
					<path class="st15" d="M6.6,5.8C6.6,5.7,6.5,5.7,6.6,5.8C6.5,5.7,6.5,5.6,6.4,5.6C6.2,5.5,6.1,5.6,6,5.8c-0.1,0.3-0.2,0.6-0.1,1
						l0,2L5.3,8.5l0-4.5l0.5,0.3v0.8h0c0-0.2,0.1-0.4,0.2-0.6c0.1-0.1,0.2-0.2,0.4-0.1c0.1,0,0.1,0.1,0.2,0.1L6.6,5.8z"/>
				</g>
				<g id="Path_55028">
					<path class="st15" d="M7.6,5.2L8,5.4v0.8L7.6,6l0,2c0,0.2,0,0.3,0,0.5c0,0.1,0,0.2,0.1,0.3c0,0.1,0.1,0.1,0.1,0.1
						c0,0,0.1,0,0.1,0v0.9c-0.1,0-0.2,0-0.3,0C7.5,9.7,7.3,9.5,7.3,9.2C7.1,8.8,7.1,8.3,7.1,7.9l0-2.1L6.8,5.6V4.8l0.3,0.2l0-1.3
						l0.6,0.3L7.6,5.2z"/>
				</g>
			</g>
			<g id="Group_23238" transform="translate(0)">
				<g id="Group_23237">
					<g id="Group_23236">
						<g id="Path_55029">
							<path class="st16" d="M2.1,0.1C1-0.5,0,1.3,0,4.2s0.9,5.6,2.1,6.2s2.1-1.2,2.1-4S3.3,0.7,2.1,0.1z"/>
						</g>
						<g id="Path_55030">
							<path class="st15" d="M1.5,2.9L1.5,2.9c-0.2-0.1-0.3,0-0.3,0.4l0,1.8c0,0.5-0.1,0.6-0.2,0.5C0.9,5.4,0.7,5.3,0.7,5.1
								c0,0-0.2,0.1-0.2,0.5c0,0.4,0.2,0.8,0.5,1c0.4,0.2,0.6-0.2,0.6-1.3l0-1.8C1.7,3.2,1.6,3,1.5,2.9z M2.1,4.1L2.1,4.1
								C2,4,1.9,4.1,1.9,4.5l0,1.9C1.9,6.8,2,7,2.1,7.1l0.1,0c0.1,0.1,0.2,0,0.2-0.4l0-1.9C2.4,4.3,2.3,4.2,2.1,4.1L2.1,4.1z
								 M2.1,2.7C2,2.6,1.9,2.8,1.9,3.1S2,3.7,2.1,3.8s0.2-0.1,0.2-0.4S2.3,2.8,2.1,2.7L2.1,2.7z M3.2,4.6C2.7,4.4,2.5,4.9,2.5,5.8
								c0,0.9,0.2,1.7,0.7,1.9s0.7-0.3,0.7-1.2S3.5,4.8,3.2,4.6L3.2,4.6z M3.1,6.8C3,6.7,2.9,6.4,2.9,6S3,5.4,3.1,5.4
								s0.3,0.4,0.3,0.8S3.3,6.9,3.1,6.8L3.1,6.8z"/>
						</g>
					</g>
				</g>
			</g>
		</g>
		<g id="Group_23244" transform="translate(71.359 70.271)">
			<g id="Group_23240" transform="translate(19.041 2.268)">
				<g id="Path_55031">
					<path class="st15" d="M3.7,1.9l0.7,6.9h0l2.5-7.3l2.3-0.3L7.8,11.7l-1.5,0.2l1-7.4h0l-2.7,7.6l-1.3,0.2L2.5,5.2h0l-0.9,7.3
						L0,12.7L1.4,2.2L3.7,1.9z"/>
				</g>
				<g id="Path_55032">
					<path class="st15" d="M12.5,6.1c0.1-0.4,0.1-0.7-0.1-1.1c-0.1-0.2-0.3-0.3-0.7-0.3c-0.3,0-0.5,0.1-0.7,0.3
						c-0.2,0.2-0.3,0.5-0.4,0.7L9.3,6c0.2-1.4,1.3-2.6,2.8-2.7c0.6-0.2,1.3,0,1.7,0.5c0.3,0.7,0.4,1.5,0.3,2.3l-0.6,5L12,11.2l0-1h0
						c-0.2,0.4-0.4,0.7-0.7,1c-0.3,0.3-0.7,0.4-1.1,0.5c-0.3,0.1-0.7,0-0.9-0.2C9,11.3,8.8,11,8.7,10.7C8.5,9.5,8.8,8.3,9.6,7.4
						c0.6-0.5,1.3-0.8,2.1-0.9l0.8-0.1L12.5,6.1z M11.7,7.8c-0.4,0-0.8,0.2-1.1,0.4c-0.3,0.2-0.4,0.6-0.5,0.9
						c-0.1,0.3,0,0.5,0.1,0.8c0.1,0.2,0.4,0.2,0.6,0.2c0.2,0,0.4-0.1,0.6-0.3c0.2-0.2,0.4-0.4,0.5-0.6c0.1-0.3,0.2-0.6,0.3-0.9
						l0.1-0.5L11.7,7.8z"/>
				</g>
				<g id="Path_55033">
					<path class="st15" d="M18.4,4.6c-0.1,0-0.1,0-0.2,0c-0.1,0-0.2,0-0.3,0c-0.5,0.1-1,0.4-1.2,0.8c-0.3,0.6-0.5,1.2-0.6,1.9
						l-0.5,3.5L14.2,11l1-7.8l1.4-0.2l-0.2,1.5h0c0.2-0.5,0.4-0.9,0.8-1.3c0.3-0.3,0.6-0.5,1-0.6c0.1,0,0.3,0,0.4,0L18.4,4.6z"/>
				</g>
				<g id="Path_55034">
					<path class="st15" d="M21.5,2.4l1.1-0.1l-0.2,1.4l-1.1,0.1l-0.4,3.5c0,0.3-0.1,0.6,0,0.8c0,0.1,0.1,0.3,0.2,0.4
						c0.1,0.1,0.2,0.1,0.4,0.1c0.1,0,0.3-0.1,0.4-0.1l-0.2,1.7c-0.2,0.1-0.5,0.2-0.7,0.2c-0.5,0.1-1-0.1-1.3-0.5
						c-0.3-0.7-0.4-1.4-0.2-2.1L19.8,4l-0.9,0.1l0.2-1.4L20,2.5l0.3-2.4L21.8,0L21.5,2.4z"/>
				</g>
			</g>
			<g id="Group_23243">
				<g id="Group_23242">
					<g id="Group_23241">
						<g id="Path_55035">
							<path class="st16" d="M10.1,0.1C5,0.8,0.6,6.3,0,12.4s3.1,10.4,8.2,9.7s9.5-6.2,10-12.3S15.1-0.6,10.1,0.1z"/>
						</g>
						<g id="Path_55036">
							<path class="st15" d="M6.8,7.1l-0.3,0C6,7.2,5.6,7.7,5.6,8.4l-0.3,3.8c-0.1,1-0.4,1.4-1,1.4c-0.5,0.1-0.9-0.2-1.2-0.6
								c-0.5,0.3-0.8,0.8-0.8,1.4c-0.1,1,0.6,1.5,2.1,1.3c1.8-0.2,2.8-1.5,3-3.8l0.3-3.8C7.7,7.4,7.4,7,6.8,7.1z M9.4,8.6l-0.2,0
								c-0.5,0.1-0.9,0.4-1,1.3L7.9,14c-0.1,0.9,0.3,1.1,0.8,1l0.2,0c0.5-0.1,0.9-0.4,1-1.3l0.3-4.1C10.3,8.8,10,8.6,9.4,8.6z
								 M9.6,5.7C8.9,5.8,8.4,6.3,8.4,7c-0.1,0.7,0.3,1.1,1,1c0.7-0.1,1.1-0.6,1.2-1.3C10.6,6,10.2,5.6,9.6,5.7L9.6,5.7z M13.7,8
								c-1.8,0.3-3.1,1.9-3.1,3.7c-0.2,2,0.8,3.2,2.5,2.9c1.8-0.3,3.1-1.9,3.1-3.7C16.4,8.9,15.4,7.7,13.7,8L13.7,8z M13.3,12.7
								c-0.7,0.1-1.1-0.4-1-1.3c0-0.8,0.5-1.4,1.3-1.6c0.7-0.1,1.1,0.4,1,1.3C14.6,11.8,14,12.5,13.3,12.7L13.3,12.7z"/>
						</g>
					</g>
				</g>
			</g>
		</g>
	</g>
</g>
</svg>
