<?xml version="1.0" encoding="utf-8"?>
<!-- Generator: Adobe Illustrator 24.0.2, SVG Export Plug-In . SVG Version: 6.00 Build 0)  -->
<svg version="1.1" id="Layer_1" xmlns="http://www.w3.org/2000/svg" xmlns:xlink="http://www.w3.org/1999/xlink" x="0px" y="0px"
	 viewBox="0 0 204.5 127.8" style="enable-background:new 0 0 204.5 127.8;" xml:space="preserve">
<style type="text/css">
	.st0{fill:#D8C571;}
	.st1{fill:#6AA5E2;}
	.st2{fill:#004D9C;}
	.st3{opacity:0.2;enable-background:new    ;}
	.st4{fill:#E01E1E;}
</style>
<path class="st0" d="M194,123.1V78.6c0,0,0.1,0,0.1,0c0.1,0,0.2,0,0.3-0.1c0.1,0,0.1-0.1,0.2-0.1c0.1,0,0.2-0.1,0.3-0.1
	c0.1,0,0.1-0.1,0.2-0.1c0.1-0.1,0.2-0.1,0.3-0.2c0.1-0.1,0.2-0.1,0.2-0.2c0.1-0.1,0.2-0.1,0.3-0.2c0.1-0.1,0.2-0.1,0.3-0.2
	c0,0,0,0,0,0c0.3-0.3,0.6-0.6,0.9-0.9c0,0,0,0,0,0c0.1-0.2,0.3-0.3,0.4-0.5c0,0,0,0,0-0.1c0.1-0.2,0.3-0.3,0.4-0.5c0,0,0,0,0,0
	c1.3-1.6,2.3-3.3,2.2-4c-0.1-1.1-2.7-4.4-4.7-6.3c0,0,0,0,0,0c-0.2-0.2-0.4-0.3-0.5-0.5c0,0-0.1,0-0.1-0.1c-0.2-0.1-0.3-0.2-0.4-0.3
	c0,0-0.1,0-0.1-0.1c-0.1-0.1-0.3-0.2-0.4-0.2c0,0,0,0-0.1,0c-0.1-0.1-0.3-0.1-0.4-0.1c-0.4,0-1,0.4-1.7,1c-2.2,2-5.3,6.1-5.1,7.3
	c0,0,0,0,0,0c0,0.2,0.2,0.5,0.3,0.8c0,0.1,0.1,0.2,0.1,0.2c0.5,0.8,1.3,1.7,2.3,2.6c0,0,0,0,0,0c0,0,0,0,0,0
	c0.1,0.1,0.2,0.2,0.3,0.3c0.1,0.1,0.2,0.2,0.3,0.2c0.1,0.1,0.2,0.2,0.3,0.2c0.1,0.1,0.2,0.2,0.3,0.3c0.1,0.1,0.1,0.1,0.2,0.2
	c0.1,0.1,0.2,0.2,0.4,0.3c0.1,0,0.1,0.1,0.2,0.1c0.1,0.1,0.3,0.2,0.4,0.3c0.1,0,0.1,0.1,0.2,0.1c0.1,0.1,0.2,0.2,0.4,0.2
	c0.1,0,0.1,0.1,0.2,0.1c0.1,0.1,0.2,0.1,0.3,0.2c0.1,0,0.1,0.1,0.2,0.1c0.1,0,0.2,0.1,0.3,0.1c0.1,0,0.2,0.1,0.2,0.1
	c0,0,0.1,0,0.1,0c0,0,0,0,0,0v44.5H0v4.7h204.5v-4.7H194z"/>
<path class="st1" d="M141.5,59.2h-21.8l-1.8,22.9l12.5,2.5c13,6,16.7-7.9,16.7-7.9V64.5C146.9,60,141.5,59.2,141.5,59.2z"/>
<g>
	<path class="st2" d="M125.4,78l0-72.6c0.4-4.3-5.1-5.3-5.1-5.3h-54c-2.7-0.1-5.1,2-5.3,4.7v70.2c1.1,5.5,5.2,9.8,10.7,11.2
		l61.5-0.1C128.6,85,125.4,78,125.4,78z M87.5,70.3H72.4V54.2h15.1V70.3z M87.5,48.5H72.4V32.4h15.1V48.5z M87.5,26.7H72.4V10.6
		h15.1V26.7z M114.8,64.5H93.5v-5.3h21.4V64.5z M114.8,43.1H93.5v-5.3h21.4V43.1z M114.8,21.2H93.5V16h21.4V21.2z"/>
	<path class="st2" d="M133.2,86c0.7,0.1,1.4,0.1,2.1,0H133.2z"/>
</g>
<ellipse class="st3" cx="102.5" cy="101.5" rx="44.5" ry="5.5"/>
<path id="Path_7811" class="st4" d="M194.3,68.9l-0.3,3.8c0,0.2-0.1,0.3-0.2,0.5c-0.1,0.1-0.3,0.2-0.4,0.2c-0.2,0-0.3-0.1-0.4-0.2
	c-0.1-0.1-0.2-0.3-0.2-0.5l-0.4-3.8c0-0.2,0-0.3,0-0.4c0-0.3,0.1-0.6,0.3-0.8c0.2-0.2,0.4-0.3,0.7-0.3c0.3,0,0.5,0.1,0.7,0.3
	c0.2,0.2,0.3,0.5,0.3,0.7C194.3,68.7,194.3,68.8,194.3,68.9z M194.1,75.2c0,0.2-0.1,0.3-0.2,0.5c-0.2,0.1-0.4,0.2-0.6,0.2
	c-0.2,0-0.4-0.1-0.6-0.2c-0.1-0.1-0.2-0.3-0.2-0.5c0-0.2,0.1-0.3,0.2-0.4c0.2-0.1,0.4-0.2,0.6-0.2c0.2,0,0.4,0.1,0.6,0.2
	C194,74.8,194.1,75,194.1,75.2L194.1,75.2z"/>
</svg>
