<svg xmlns="http://www.w3.org/2000/svg" width="16.689" height="15.089" viewBox="0 0 16.689 15.089"><defs><style>.a{fill:#646464;}</style></defs><g transform="translate(-0.001 -10.253)"><g transform="translate(0.001 10.253)"><path class="a" d="M16.653,53.564a.243.243,0,0,0-.207-.115H8.873l-.746-.582a.6.6,0,0,0-.4-.728L5.91,51.576,4.618,49.66a.967.967,0,0,0-.373-.766.722.722,0,0,0-1.183-.008.968.968,0,0,0-.377.653L2.2,53.432a.967.967,0,0,0,.166.669l-.747,3.1-1.5,2.361a.73.73,0,0,0,.224,1.007.721.721,0,0,0,.391.114.73.73,0,0,0,.616-.338l1.567-2.462a.716.716,0,0,0,.093-.22L3.5,55.624,4.7,57.309l.669,2.81a.73.73,0,0,0,.709.561.721.721,0,0,0,.17-.02.729.729,0,0,0,.541-.879l-.7-2.949a.725.725,0,0,0-.116-.255L4.066,53.908a.941.941,0,0,0,.063-.234l.27-2.162.621.922a.608.608,0,0,0,.325.241l2.018.625a.569.569,0,0,0,.464-.051l.733.573.475,4.156a.244.244,0,0,0,.242.216h5.045a.243.243,0,0,0,.218-.135L16.664,53.8A.244.244,0,0,0,16.653,53.564Zm-.6.372-.292.584H9.13l-.067-.584Zm-.826,1.656H9.252l-.067-.585h6.333Zm-.535,1.072H9.374l-.067-.585h5.676Zm-.52,1.044H9.494l-.064-.557h5.018Z" transform="translate(-0.001 -45.591)"/><path class="a" d="M110.44,173.7a.924.924,0,1,0,.924.924A.925.925,0,0,0,110.44,173.7Zm0,1.361a.437.437,0,1,1,.437-.437A.438.438,0,0,1,110.44,175.065Z" transform="translate(-100.97 -160.949)"/><path class="a" d="M168.892,173.7a.924.924,0,1,0,.924.924A.926.926,0,0,0,168.892,173.7Zm0,1.361a.437.437,0,1,1,.437-.437A.438.438,0,0,1,168.892,175.065Z" transform="translate(-154.86 -160.949)"/><circle class="a" cx="1.51" cy="1.51" r="1.51" transform="translate(3.097 0)"/></g></g></svg>