<svg xmlns="http://www.w3.org/2000/svg" width="15.258" height="13.41" viewBox="0 0 15.258 13.41"><defs><style>.a{fill:#646464;}</style></defs><path class="a" d="M4.916,8.94h8.107a.447.447,0,0,0,.43-.324l1.788-6.258a.447.447,0,0,0-.43-.57H3.885L3.565.35A.447.447,0,0,0,3.129,0H.447a.447.447,0,0,0,0,.894H2.771L4.384,8.157a1.341,1.341,0,0,0,.533,2.571h8.106a.447.447,0,0,0,0-.894H4.917a.447.447,0,0,1,0-.894Zm9.3-6.258L12.686,8.046H5.276L4.084,2.682Zm0,0"/><path class="a" d="M150,361.341A1.341,1.341,0,1,0,151.341,360,1.343,1.343,0,0,0,150,361.341Zm1.341-.447a.447.447,0,1,1-.447.447A.448.448,0,0,1,151.341,360.894Zm0,0" transform="translate(-145.53 -349.272)"/><path class="a" d="M362,361.341A1.341,1.341,0,1,0,363.341,360,1.343,1.343,0,0,0,362,361.341Zm1.341-.447a.447.447,0,1,1-.447.447A.448.448,0,0,1,363.341,360.894Zm0,0" transform="translate(-351.212 -349.272)"/></svg>