<svg xmlns="http://www.w3.org/2000/svg" width="17.533" height="22.053" viewBox="0 0 17.533 22.053">
  <g id="return" transform="translate(-47.889 0.105)">
    <g id="Group_1772" data-name="Group 1772" transform="translate(47.994 0)">
      <g id="Group_1771" data-name="Group 1771" transform="translate(0 0)">
        <path id="Path_3140" data-name="Path 3140" d="M65.3,2.912V2.9a.33.33,0,0,0-.1-.15.347.347,0,0,0-.115-.078l-.033-.017L56.771.018a.377.377,0,0,0-.228,0L48.258,2.654a.377.377,0,0,0-.264.359v9.038a.377.377,0,0,0,.264.359l8.285,2.636a.377.377,0,0,0,.228,0l1.506-.479a.377.377,0,1,0-.228-.718l-1.017.323V12.8a.377.377,0,1,0-.753,0v1.368l-7.532-2.4V3.288l2.511-.8L58.3,4.73l-1.645.523-6.289-2a.377.377,0,1,0-.228.718l6.141,1.953V11.3a.377.377,0,0,0,.753,0V5.924l2.134-.678v2.5a.377.377,0,0,0,.377.377.385.385,0,0,0,.113-.018l.879-.28a.377.377,0,1,0-.228-.718l-.388.124V5.007l1.945-.619V6.61l-.428.136a.377.377,0,0,0,.113.735.367.367,0,0,0,.113-.018l.691-.22a.377.377,0,0,0,.264-.359V4.147l1.948-.619v8.247l-.49.156a.377.377,0,0,0,.205.725l.021-.007.753-.24a.377.377,0,0,0,.264-.359V3.013A.377.377,0,0,0,65.3,2.912ZM59.543,4.335,52.5,2.094l1.457-.464L61,3.871Zm2.7-.859L55.2,1.235,56.656.772,63.7,3.013Z" transform="translate(-47.994 0)" fill="#004d9c" stroke="#004d9c" stroke-width="0.21"/>
      </g>
    </g>
    <g id="Group_1774" data-name="Group 1774" transform="translate(49.5 9.415)">
      <g id="Group_1773" data-name="Group 1773" transform="translate(0)">
        <path id="Path_3141" data-name="Path 3141" d="M80.371,199.992a.377.377,0,0,0-.377.377v1.13a.377.377,0,1,0,.753,0v-1.13A.377.377,0,0,0,80.371,199.992Z" transform="translate(-79.994 -199.992)" fill="#004d9c" stroke="#004d9c" stroke-width="0.21"/>
      </g>
    </g>
    <g id="Group_1776" data-name="Group 1776" transform="translate(51.007 9.791)">
      <g id="Group_1775" data-name="Group 1775" transform="translate(0)">
        <path id="Path_3142" data-name="Path 3142" d="M112.371,207.992a.377.377,0,0,0-.377.377v1.13a.377.377,0,0,0,.753,0v-1.13A.377.377,0,0,0,112.371,207.992Z" transform="translate(-111.994 -207.992)" fill="#004d9c" stroke="#004d9c" stroke-width="0.21"/>
      </g>
    </g>
    <g id="Group_1778" data-name="Group 1778" transform="translate(50.254 10.544)">
      <g id="Group_1777" data-name="Group 1777" transform="translate(0)">
        <path id="Path_3143" data-name="Path 3143" d="M108.427,223.992a.377.377,0,0,0-.377.377v5.272a3.393,3.393,0,0,1-3.389,3.389h-4.519a.377.377,0,0,0-.377.377v.783l-2.733-1.913,2.733-1.913v.783a.377.377,0,0,0,.377.377h3.389a2.262,2.262,0,0,0,2.26-2.26v-1.506a.377.377,0,1,0-.753,0v1.506a1.506,1.506,0,0,1-1.506,1.506h-3.013v-1.13a.377.377,0,0,0-.592-.308l-3.766,2.636a.377.377,0,0,0,0,.617l3.766,2.636a.377.377,0,0,0,.592-.308v-1.13h4.143a4.147,4.147,0,0,0,4.143-4.143v-5.272A.377.377,0,0,0,108.427,223.992Z" transform="translate(-95.999 -223.992)" fill="#004d9c" stroke="#004d9c" stroke-width="0.21"/>
      </g>
    </g>
    <g id="Group_1780" data-name="Group 1780" transform="translate(59.292 11.674)">
      <g id="Group_1779" data-name="Group 1779" transform="translate(0)">
        <path id="Path_3144" data-name="Path 3144" d="M288.371,247.992a.377.377,0,0,0-.377.377v.753a.377.377,0,0,0,.753,0v-.753A.377.377,0,0,0,288.371,247.992Z" transform="translate(-287.994 -247.992)" fill="#004d9c" stroke="#004d9c" stroke-width="0.21"/>
      </g>
    </g>
    <g id="Group_1782" data-name="Group 1782" transform="translate(62.305 8.285)">
      <g id="Group_1781" data-name="Group 1781" transform="translate(0)">
        <path id="Path_3145" data-name="Path 3145" d="M352.371,175.992a.377.377,0,0,0-.377.377v.753a.377.377,0,0,0,.753,0v-.753A.377.377,0,0,0,352.371,175.992Z" transform="translate(-351.994 -175.992)" fill="#004d9c" stroke="#004d9c" stroke-width="0.21"/>
      </g>
    </g>
    <g id="Group_1784" data-name="Group 1784" transform="translate(60.798 9.791)">
      <g id="Group_1783" data-name="Group 1783">
        <path id="Path_3146" data-name="Path 3146" d="M320.371,207.992a.377.377,0,0,0-.377.377v3.013a.377.377,0,0,0,.753,0v-3.013A.377.377,0,0,0,320.371,207.992Z" transform="translate(-319.994 -207.992)" fill="#004d9c" stroke="#004d9c" stroke-width="0.21"/>
      </g>
    </g>
  </g>
</svg>
