<svg xmlns="http://www.w3.org/2000/svg" width="25.605" height="16.197" viewBox="0 0 25.605 16.197">
  <g id="shipped" transform="translate(0 -94.062)">
    <g id="Group_1786" data-name="Group 1786" transform="translate(0 94.062)">
      <g id="Group_1785" data-name="Group 1785" transform="translate(0 0)">
        <path id="Path_3147" data-name="Path 3147" d="M23.813,100.929l-.663-2.652a.4.4,0,0,0,.317-.392v-.428a1.686,1.686,0,0,0-1.684-1.684h-3.02v-.882a.829.829,0,0,0-.829-.829H2.539a.829.829,0,0,0-.829.829v7.27a.4.4,0,1,0,.8,0v-7.27a.027.027,0,0,1,.027-.027h15.4a.027.027,0,0,1,.027.027v7.27a.4.4,0,1,0,.8,0v-.454h4.732a1.312,1.312,0,0,1,1.246.909H23.494a.4.4,0,0,0-.4.4v.855a1.258,1.258,0,0,0,1.256,1.256H24.8v1.764H23.755a2.538,2.538,0,0,0-4.8,0h-.193v-3.02a.4.4,0,0,0-.8,0v3.02H9.643a2.538,2.538,0,0,0-4.8,0h-2.3a.027.027,0,0,1-.027-.027v-.882H4.25a.4.4,0,1,0,0-.8H.4a.4.4,0,1,0,0,.8h1.31v.882a.83.83,0,0,0,.829.829H4.7c0,.009,0,.018,0,.027a2.539,2.539,0,1,0,5.078,0c0-.009,0-.018,0-.027h9.036c0,.009,0,.018,0,.027a2.539,2.539,0,1,0,5.078,0c0-.009,0-.018,0-.027H25.2a.4.4,0,0,0,.4-.4v-4.277A2.115,2.115,0,0,0,23.813,100.929Zm-5.05-4.354h3.02a.883.883,0,0,1,.882.882v.027h-3.9Zm0,4.33V98.285h3.563l.655,2.619Zm-11.52,8.553a1.737,1.737,0,1,1,1.737-1.737A1.739,1.739,0,0,1,7.243,109.458Zm14.113,0a1.737,1.737,0,1,1,1.737-1.737A1.739,1.739,0,0,1,21.356,109.458Zm3.448-5.132H24.35a.455.455,0,0,1-.454-.454v-.454H24.8v.909Z" transform="translate(0 -94.062)" fill="#004d9c"/>
      </g>
    </g>
    <g id="Group_1788" data-name="Group 1788" transform="translate(6.415 106.892)">
      <g id="Group_1787" data-name="Group 1787" transform="translate(0 0)">
        <path id="Path_3148" data-name="Path 3148" d="M129.1,350.6a.829.829,0,1,0,.829.829A.829.829,0,0,0,129.1,350.6Z" transform="translate(-128.267 -350.597)" fill="#004d9c"/>
      </g>
    </g>
    <g id="Group_1790" data-name="Group 1790" transform="translate(20.527 106.892)">
      <g id="Group_1789" data-name="Group 1789" transform="translate(0 0)">
        <path id="Path_3149" data-name="Path 3149" d="M411.284,350.6a.829.829,0,1,0,.829.829A.829.829,0,0,0,411.284,350.6Z" transform="translate(-410.455 -350.597)" fill="#004d9c"/>
      </g>
    </g>
    <g id="Group_1792" data-name="Group 1792" transform="translate(10.264 105.181)">
      <g id="Group_1791" data-name="Group 1791" transform="translate(0 0)">
        <path id="Path_3150" data-name="Path 3150" d="M211.615,316.393h-5.987a.4.4,0,1,0,0,.8h5.987a.4.4,0,1,0,0-.8Z" transform="translate(-205.227 -316.393)" fill="#004d9c"/>
      </g>
    </g>
    <g id="Group_1794" data-name="Group 1794" transform="translate(0.855 103.47)">
      <g id="Group_1793" data-name="Group 1793" transform="translate(0 0)">
        <path id="Path_3151" data-name="Path 3151" d="M22.635,282.188H17.5a.4.4,0,1,0,0,.8h5.132a.4.4,0,1,0,0-.8Z" transform="translate(-17.102 -282.188)" fill="#004d9c"/>
      </g>
    </g>
    <g id="Group_1796" data-name="Group 1796" transform="translate(7.27 97.911)">
      <g id="Group_1795" data-name="Group 1795" transform="translate(0 0)">
        <path id="Path_3152" data-name="Path 3152" d="M152.041,171.14a.4.4,0,0,0-.567,0l-3.565,3.565-1.855-1.855a.4.4,0,0,0-.567.567l2.138,2.138a.4.4,0,0,0,.567,0l3.849-3.849A.4.4,0,0,0,152.041,171.14Z" transform="translate(-145.37 -171.023)" fill="#004d9c"/>
      </g>
    </g>
  </g>
</svg>
