<svg xmlns="http://www.w3.org/2000/svg" width="15.216" height="13.316" viewBox="0 0 15.216 13.316">
  <g id="Group_27305" data-name="Group 27305" transform="translate(-148.39 -322.399)">
    <g id="Group_27305-2" data-name="Group 27305" transform="translate(149 323)">
      <line id="Line_7284" data-name="Line 7284" y2="8.749" transform="translate(7 3.367)" fill="none" stroke="#1a1818" stroke-linecap="round" stroke-linejoin="round" stroke-width="1.2"/>
      <line id="Line_7285" data-name="Line 7285" x2="1.3" transform="translate(7 8.085)" fill="none" stroke="#1a1818" stroke-linecap="round" stroke-linejoin="round" stroke-width="1.2"/>
      <path id="Path_64769" data-name="Path 64769" d="M1551.843,6474.92v6.325a1.061,1.061,0,0,0,1.058,1.058h9.525a1.061,1.061,0,0,0,1.058-1.058v-6.325" transform="translate(-1550.664 -6470.188)" fill="none" stroke="#1a1818" stroke-linecap="round" stroke-linejoin="round" stroke-width="1.2"/>
      <path id="Path_64770" data-name="Path 64770" d="M1552.271,6451.747a4.149,4.149,0,0,0-5.309,1.588,2.084,2.084,0,0,1-.448-.048,1.623,1.623,0,0,1-1.115-2.216l.772-1.847a1.089,1.089,0,0,1,1.005-.669h10.191a1.089,1.089,0,0,1,1,.669l.771,1.846a1.615,1.615,0,0,1-.843,2.123,1.916,1.916,0,0,1-.719.143,1.78,1.78,0,0,0-3.539,0A1.624,1.624,0,0,1,1552.271,6451.747Z" transform="translate(-1545.271 -6448.554)" fill="none" stroke="#1a1818" stroke-linecap="round" stroke-linejoin="round" stroke-width="1.2"/>
    </g>
  </g>
</svg>
