<svg xmlns="http://www.w3.org/2000/svg" width="11.238" height="11.562" viewBox="0 0 11.238 11.562"><defs><style>.a{fill:#0066c0;stroke:#0066c0;stroke-width:0.2px;}</style></defs><g transform="translate(-339.9 -34.9)"><g transform="translate(340 35)"><g transform="translate(0)"><path class="a" d="M174.09,5.538V.319a.319.319,0,0,0-.639,0V5.538a1.622,1.622,0,0,0,0,3.179V11.04a.319.319,0,0,0,.639,0V8.717a1.622,1.622,0,0,0,0-3.179Zm-.319,2.571a.982.982,0,1,1,.982-.982A.982.982,0,0,1,173.77,8.109Z" transform="translate(-168.24)"/><path class="a" d="M8.79,2.86V.319a.319.319,0,1,0-.639,0V2.86a1.622,1.622,0,0,0,0,3.179v5a.319.319,0,1,0,.639,0v-5a1.62,1.62,0,0,0,0-3.177ZM8.47,5.432a.982.982,0,1,1,.982-.982A.982.982,0,0,1,8.47,5.432Z" transform="translate(-6.85)"/><path class="a" d="M338.39,2.86V.319a.319.319,0,0,0-.639,0V2.86a1.622,1.622,0,0,0,0,3.179v5a.319.319,0,0,0,.639,0V6.037a1.62,1.62,0,0,0,0-3.177Zm-.319,2.571a.982.982,0,1,1,.982-.982A.982.982,0,0,1,338.07,5.432Z" transform="translate(-328.653)"/></g></g></g></svg>