<?xml version="1.0" encoding="utf-8"?>
<!-- Generator: Adobe Illustrator 24.0.1, SVG Export Plug-In . SVG Version: 6.00 Build 0)  -->
<svg version="1.1" id="Layer_1" xmlns="http://www.w3.org/2000/svg" xmlns:xlink="http://www.w3.org/1999/xlink" x="0px" y="0px"
	 viewBox="0 0 10 9.5" style="enable-background:new 0 0 10 9.5;" xml:space="preserve" width="10" height="9.5">
<style type="text/css">
	.st0{fill:#C4C4C4;}
</style>
<path fill="#C4C4C4" d="M9.9,3.7c0-0.1-0.1-0.3-0.2-0.3L6.5,3.2l-1.3-3v0C5.2,0.1,5.1,0,5.1,0C4.9,0,4.8,0,4.7,0.1l-1.3,3L0.2,3.4
	c-0.1,0-0.1,0-0.2,0.1C0,3.6,0,3.8,0.1,3.9L2.5,6L1.8,9.2c0,0.1,0,0.1,0,0.2c0.1,0.1,0.2,0.2,0.4,0.1L5,7.8l2.8,1.7
	c0.1,0,0.1,0,0.2,0c0.1,0,0.2-0.2,0.2-0.3L7.4,6l2.5-2.1C9.9,3.8,9.9,3.8,9.9,3.7z"/>
</svg>
